<svg width="38" height="38" viewBox="0 0 38 38" fill="none" xmlns="http://www.w3.org/2000/svg">
<g clip-path="url(#clip0_3_9595)">
<path opacity="0.962" fill-rule="evenodd" clip-rule="evenodd" d="M4.56445 -0.0371094C13.6191 -0.0371094 22.6738 -0.0371094 31.7285 -0.0371094C34.1303 0.496672 35.6518 1.95631 36.293 4.3418C36.3906 9.95541 36.4401 15.5713 36.4414 21.1895C37.239 22.5559 37.7462 24.0156 37.9629 25.5684C37.9629 26.4343 37.9629 27.3001 37.9629 28.166C36.9485 33.6829 33.6829 36.9485 28.166 37.9629C27.3001 37.9629 26.4343 37.9629 25.5684 37.9629C24.0153 37.7461 22.5557 37.239 21.1895 36.4414C15.5713 36.4401 9.95541 36.3906 4.3418 36.293C1.98972 35.6603 0.530088 34.1636 -0.0371094 31.8027C-0.0371094 22.7233 -0.0371094 13.6439 -0.0371094 4.56445C0.531901 2.06575 2.06575 0.531901 4.56445 -0.0371094ZM4.93555 1.5957C13.7676 1.58333 22.5996 1.5957 31.4316 1.63281C33.2916 2.05789 34.3925 3.20828 34.7344 5.08398C34.7962 9.71048 34.7839 14.3368 34.6973 18.9629C31.6764 16.1478 28.1386 15.1954 24.084 16.1055C19.7167 17.4298 17.0077 20.3119 15.957 24.752C15.3231 28.5764 16.3251 31.8915 18.9629 34.6973C14.3368 34.7839 9.71048 34.7962 5.08398 34.7344C3.20893 34.3932 2.05854 33.2923 1.63281 31.4316C1.58333 22.5996 1.58333 13.7676 1.63281 4.93555C2.0049 3.09149 3.10581 1.97821 4.93555 1.5957ZM26.2363 17.4043C30.0495 17.3375 32.9812 18.8961 35.0312 22.0801C36.7066 25.1713 36.756 28.2885 35.1797 31.4316C33.0892 34.8955 30.0092 36.5159 25.9395 36.293C21.8769 35.6906 19.168 33.4517 17.8125 29.5762C16.8506 25.6912 17.8279 22.3885 20.7441 19.668C22.3487 18.3584 24.1794 17.6038 26.2363 17.4043Z" fill="#5A44F5"/>
<path opacity="0.963" fill-rule="evenodd" clip-rule="evenodd" d="M9.90826 4.71287C10.484 4.55892 10.8675 4.75684 11.0587 5.30662C11.0958 6.69181 11.1082 8.0772 11.0958 9.46287C12.5309 9.45047 13.9658 9.46287 15.4004 9.49998C16.0315 10.0911 15.982 10.6106 15.252 11.0586C13.8668 11.0957 12.4814 11.1081 11.0958 11.0957C11.1082 12.4813 11.0958 13.8667 11.0587 15.2519C10.6107 15.9819 10.0911 16.0315 9.50006 15.4004C9.46295 13.9657 9.45055 12.5308 9.46295 11.0957C8.07728 11.1081 6.69189 11.0957 5.3067 11.0586C4.70852 10.8029 4.54771 10.3699 4.82427 9.75974C4.91438 9.64478 5.0257 9.55824 5.15826 9.49998C6.59294 9.46287 8.02785 9.45047 9.46295 9.46287C9.45055 8.02777 9.46295 6.59287 9.50006 5.15818C9.60099 4.97096 9.73704 4.82252 9.90826 4.71287Z" fill="#5A44F5"/>
<path opacity="0.959" fill-rule="evenodd" clip-rule="evenodd" d="M22.5254 9.4629C25.42 9.45051 28.3145 9.4629 31.209 9.50001C31.6521 9.81151 31.7635 10.2197 31.543 10.7246C31.4145 10.8817 31.2537 10.9931 31.0605 11.0586C28.2649 11.1081 25.4694 11.1081 22.6738 11.0586C22.132 10.8034 21.9712 10.3952 22.1914 9.83399C22.3181 9.71992 22.4294 9.5962 22.5254 9.4629Z" fill="#5A44F5"/>
<path opacity="0.942" fill-rule="evenodd" clip-rule="evenodd" d="M5.30675 22.0801C5.5709 22.0733 5.8183 22.1351 6.04894 22.2656C7.17562 23.4047 8.31365 24.5304 9.463 25.6426C10.6124 24.5304 11.7503 23.4047 12.8771 22.2656C13.6202 21.9107 14.0655 22.1334 14.213 22.9336C14.2134 23.1043 14.1763 23.2651 14.1017 23.416C12.9513 24.5664 11.8009 25.7168 10.6505 26.8672C11.8009 28.0176 12.9513 29.168 14.1017 30.3184C14.4036 31.377 14.0201 31.7852 12.9513 31.543C11.7999 30.3792 10.6371 29.2288 9.463 28.0918C8.28894 29.2288 7.12614 30.3792 5.97472 31.543C4.90587 31.7852 4.52241 31.377 4.82433 30.3184C5.97472 29.168 7.12511 28.0176 8.2755 26.8672C7.12511 25.7168 5.97472 24.5664 4.82433 23.416C4.54956 22.7956 4.71037 22.3503 5.30675 22.0801Z" fill="#5A44F5"/>
<path opacity="0.959" fill-rule="evenodd" clip-rule="evenodd" d="M22.5254 23.7129C25.42 23.7005 28.3145 23.7129 31.209 23.75C31.6521 24.0615 31.7635 24.4697 31.543 24.9746C31.4145 25.1317 31.2537 25.2431 31.0605 25.3086C28.2649 25.3581 25.4694 25.3581 22.6738 25.3086C22.132 25.0534 21.9712 24.6452 22.1914 24.084C22.3181 23.9699 22.4294 23.8462 22.5254 23.7129Z" fill="#5A44F5"/>
<path opacity="0.959" fill-rule="evenodd" clip-rule="evenodd" d="M22.5254 28.4629C25.42 28.4505 28.3145 28.4629 31.209 28.5C31.6521 28.8115 31.7635 29.2197 31.543 29.7246C31.4145 29.8817 31.2537 29.9931 31.0605 30.0586C28.2649 30.1081 25.4694 30.1081 22.6738 30.0586C22.132 29.8034 21.9712 29.3952 22.1914 28.834C22.3181 28.7199 22.4294 28.5962 22.5254 28.4629Z" fill="#5A44F5"/>
</g>
<defs>
<clipPath id="clip0_3_9595">
<rect width="38" height="38" fill="white"/>
</clipPath>
</defs>
</svg>
