<svg width="38" height="38" viewBox="0 0 38 38" fill="none" xmlns="http://www.w3.org/2000/svg">
<g clip-path="url(#clip0_3_9608)">
<path opacity="0.992" fill-rule="evenodd" clip-rule="evenodd" d="M1.5957 -0.0371094C10.2546 -0.0371094 18.9134 -0.0371094 27.5723 -0.0371094C28.3874 0.221496 28.9193 0.765767 29.168 1.5957C29.2051 4.31695 29.2175 7.0383 29.2051 9.75977C30.4504 9.63322 31.2792 10.1528 31.6914 11.3184C31.7284 11.763 31.7408 12.2083 31.7285 12.6543C32.882 13.0541 33.3768 13.8705 33.2129 15.1035C34.3315 15.07 35.4448 15.1072 36.5527 15.2148C37.271 15.4999 37.7411 16.0071 37.9629 16.7363C37.9629 23.2676 37.9629 29.7988 37.9629 36.3301C37.6907 37.1465 37.1465 37.6907 36.3301 37.9629C24.752 37.9629 13.1738 37.9629 1.5957 37.9629C0.779297 37.6907 0.235026 37.1465 -0.0371094 36.3301C-0.0371094 24.752 -0.0371094 13.1738 -0.0371094 1.5957C0.235026 0.779297 0.779297 0.235026 1.5957 -0.0371094ZM2.18945 1.44727C10.5546 1.41076 18.9167 1.44787 27.2754 1.55859C27.5317 1.68686 27.6677 1.89714 27.6836 2.18945C27.7207 4.71277 27.7331 7.23621 27.7207 9.75977C23.1191 9.74737 18.5175 9.75977 13.916 9.79688C13.112 10.0071 12.6048 10.5143 12.3945 11.3184C12.3575 11.763 12.3451 12.2083 12.3574 12.6543C11.204 13.0541 10.7092 13.8705 10.873 15.1035C9.77914 15.0701 8.69064 15.1072 7.60742 15.2148C6.89022 15.4868 6.43253 15.9939 6.23438 16.7363C6.17273 23.2953 6.1851 29.8513 6.27148 36.4043C4.91149 36.4908 3.5508 36.5032 2.18945 36.4414C1.75651 36.4043 1.52148 36.1692 1.48438 35.7363C1.43489 24.554 1.43489 13.3718 1.48438 2.18945C1.53477 1.75579 1.7698 1.50839 2.18945 1.44727ZM14.5098 11.2441C19.5319 11.2317 24.5541 11.2441 29.5762 11.2812C29.8165 11.2985 30.002 11.4098 30.1328 11.6152C30.2237 11.9555 30.2608 12.3019 30.2441 12.6543C29.0907 13.0541 28.5959 13.8705 28.7598 15.1035C24.2819 15.1035 19.804 15.1035 15.3262 15.1035C15.49 13.8705 14.9952 13.0541 13.8418 12.6543C13.8251 12.3019 13.8622 11.9555 13.9531 11.6152C14.0951 11.4089 14.2807 11.2852 14.5098 11.2441ZM12.9512 14.0645C13.6257 14.0744 13.9226 14.4208 13.8418 15.1035C13.347 15.1035 12.8522 15.1035 12.3574 15.1035C12.2967 14.5877 12.4946 14.2413 12.9512 14.0645ZM30.8379 14.0645C31.5125 14.0744 31.8093 14.4208 31.7285 15.1035C31.2337 15.1035 30.739 15.1035 30.2441 15.1035C30.1834 14.5877 30.3813 14.2413 30.8379 14.0645ZM8.42383 16.5879C17.528 16.5755 26.6322 16.5879 35.7363 16.625C36.0286 16.6409 36.2389 16.7769 36.3672 17.0332C36.4666 17.5472 36.5037 18.0668 36.4785 18.5918C34.4745 18.5794 32.4706 18.5918 30.4668 18.6289C29.9945 18.951 29.9079 19.3592 30.207 19.8535C30.2741 19.9427 30.3606 20.0046 30.4668 20.0391C32.4706 20.0762 34.4745 20.0886 36.4785 20.0762C36.4785 21.3626 36.4785 22.6491 36.4785 23.9355C32.8171 23.9355 29.1556 23.9355 25.4941 23.9355C25.5891 23.4888 25.4654 23.1301 25.123 22.8594C23.0944 22.8099 21.0657 22.8099 19.0371 22.8594C18.6947 23.1301 18.571 23.4888 18.666 23.9355C15.0046 23.9355 11.3431 23.9355 7.68164 23.9355C7.66925 21.7336 7.68164 19.5318 7.71875 17.3301C7.76914 16.8964 8.0042 16.649 8.42383 16.5879ZM20.1504 24.3066C21.4368 24.3066 22.7233 24.3066 24.0098 24.3066C24.0222 25.1481 24.0098 25.9893 23.9727 26.8301C23.8408 27.9639 23.21 28.5824 22.0801 28.6855C20.9502 28.5824 20.3193 27.9639 20.1875 26.8301C20.1504 25.9893 20.138 25.1481 20.1504 24.3066ZM7.68164 25.4199C11.3431 25.4199 15.0046 25.4199 18.666 25.4199C18.3179 27.0863 18.7632 28.4841 20.002 29.6133C21.0416 30.2755 22.1549 30.4239 23.3418 30.0586C24.4492 29.5699 25.1543 28.7411 25.457 27.5723C25.4941 26.8552 25.5065 26.1378 25.4941 25.4199C29.1556 25.4199 32.8171 25.4199 36.4785 25.4199C36.4909 28.8588 36.4785 32.2976 36.4414 35.7363C36.3796 36.1445 36.1445 36.3796 35.7363 36.4414C26.6321 36.4909 17.528 36.4909 8.42383 36.4414C7.99091 36.4043 7.75586 36.1692 7.71875 35.7363C7.68164 32.2976 7.66925 28.8588 7.68164 25.4199Z" fill="#5A44F5"/>
<path opacity="0.989" fill-rule="evenodd" clip-rule="evenodd" d="M4.34186 3.9707C7.83021 3.95833 11.3185 3.9707 14.8067 4.00781C15.1611 4.27909 15.2724 4.63781 15.1407 5.08399C15.0541 5.22005 14.9427 5.33138 14.8067 5.41797C11.3184 5.46745 7.83014 5.46745 4.34186 5.41797C3.9875 5.14669 3.87617 4.78797 4.00787 4.3418C4.10923 4.20362 4.22056 4.07993 4.34186 3.9707Z" fill="#5A44F5"/>
<path opacity="0.907" fill-rule="evenodd" clip-rule="evenodd" d="M17.0333 3.9707C17.9108 3.84628 18.2696 4.21737 18.1095 5.08398C17.8382 5.43834 17.4795 5.54966 17.0333 5.41796C16.6789 5.14669 16.5676 4.78796 16.6993 4.34179C16.8007 4.20362 16.912 4.07992 17.0333 3.9707Z" fill="#5A44F5"/>
<path opacity="0.978" fill-rule="evenodd" clip-rule="evenodd" d="M4.34186 7.53321C6.24696 7.52082 8.15188 7.53321 10.0567 7.57032C10.5114 7.89622 10.5979 8.30442 10.3165 8.79493C10.2494 8.88407 10.1629 8.94597 10.0567 8.98048C8.15173 9.02998 6.24681 9.02998 4.34186 8.98048C3.9875 8.70921 3.87617 8.35051 4.00787 7.90431C4.10923 7.76611 4.22056 7.64246 4.34186 7.53321Z" fill="#5A44F5"/>
<path opacity="0.978" fill-rule="evenodd" clip-rule="evenodd" d="M4.34186 11.0957C6.24696 11.0833 8.15188 11.0957 10.0567 11.1328C10.5114 11.4587 10.5979 11.8669 10.3165 12.3574C10.2494 12.4466 10.1629 12.5085 10.0567 12.543C8.15173 12.5925 6.24681 12.5925 4.34186 12.543C3.9875 12.2717 3.87617 11.913 4.00787 11.4668C4.10923 11.3286 4.22056 11.205 4.34186 11.0957Z" fill="#5A44F5"/>
<path opacity="0.896" fill-rule="evenodd" clip-rule="evenodd" d="M27.4982 18.5918C28.3138 18.4799 28.6726 18.8262 28.5743 19.6309C28.3311 20.0471 27.9724 20.1832 27.4982 20.0391C26.9085 19.5569 26.9085 19.0744 27.4982 18.5918Z" fill="#5A44F5"/>
<path opacity="0.934" fill-rule="evenodd" clip-rule="evenodd" d="M21.709 25.791C22.1558 25.696 22.5145 25.8197 22.7852 26.1621C22.8347 26.5826 22.8347 27.0032 22.7852 27.4238C22.5139 27.7782 22.1552 27.8895 21.709 27.7578C21.573 27.6711 21.4616 27.5598 21.375 27.4238C21.3255 27.0032 21.3255 26.5826 21.375 26.1621C21.4764 26.0239 21.5877 25.9002 21.709 25.791Z" fill="#5A44F5"/>
</g>
<defs>
<clipPath id="clip0_3_9608">
<rect width="38" height="38" fill="white"/>
</clipPath>
</defs>
</svg>
