<svg width="38" height="38" viewBox="0 0 38 38" fill="none" xmlns="http://www.w3.org/2000/svg">
<g clip-path="url(#clip0_3_9534)">
<path opacity="0.927" fill-rule="evenodd" clip-rule="evenodd" d="M17.9239 -0.0371094C18.6166 -0.0371094 19.3093 -0.0371094 20.002 -0.0371094C23.9079 0.963983 25.7511 3.48742 25.5313 7.5332C25.0582 10.1001 23.611 11.8689 21.1895 12.8398C17.8874 13.7663 15.2526 12.8386 13.2852 10.0566C12.223 8.09586 12.0746 6.06723 12.8399 3.9707C13.8723 1.78721 15.567 0.451274 17.9239 -0.0371094ZM18.0723 1.15039C21.3981 0.96284 23.4886 2.47195 24.3438 5.67773C24.6128 8.39384 23.5366 10.3606 21.1153 11.5781C18.2519 12.5286 15.9635 11.7741 14.2501 9.31445C12.9677 6.69694 13.3759 4.38378 15.4747 2.375C16.2511 1.76396 17.117 1.35576 18.0723 1.15039Z" fill="#5A44F5"/>
<path opacity="0.912" fill-rule="evenodd" clip-rule="evenodd" d="M22.0057 4.49023C22.7188 4.524 22.9291 4.87035 22.6366 5.5293C21.3131 6.80339 19.9894 8.07745 18.6659 9.35156C18.369 9.59893 18.0722 9.59893 17.7753 9.35156C17.2209 8.87152 16.689 8.3643 16.1796 7.83008C16.1093 7.018 16.4433 6.78297 17.1815 7.125C17.4978 7.51828 17.8689 7.81516 18.2948 8.01562C19.524 6.82328 20.761 5.64815 22.0057 4.49023Z" fill="#5A44F5"/>
<path opacity="0.944" fill-rule="evenodd" clip-rule="evenodd" d="M37.9629 8.20121C37.9629 15.6478 37.9629 23.0945 37.9629 30.5411C37.6714 31.8095 36.8797 32.5641 35.5879 32.8047C32.4461 32.8418 29.3042 32.8542 26.1621 32.8418C26.1498 33.5597 26.1621 34.2772 26.1992 34.9942C26.614 35.6011 27.0469 36.1948 27.498 36.7754C27.8418 36.8369 28.1881 36.874 28.5371 36.8868C28.8126 37.0733 28.8991 37.333 28.7969 37.6661C28.7457 37.8034 28.6591 37.9024 28.5371 37.9629C22.2038 37.9629 15.8704 37.9629 9.53711 37.9629C9.14479 37.6041 9.14479 37.2453 9.53711 36.8868C9.86152 36.874 10.1831 36.8369 10.502 36.7754C10.9531 36.1948 11.386 35.6011 11.8008 34.9942C11.8379 34.2772 11.8502 33.5597 11.8379 32.8418C8.67113 32.8542 5.50446 32.8418 2.33789 32.8047C1.04605 32.5641 0.254383 31.8095 -0.0371094 30.5411C-0.0371094 23.0945 -0.0371094 15.6478 -0.0371094 8.20121C0.271074 7.03958 1.01326 6.30975 2.18945 6.01176C5.10872 5.96228 8.02802 5.96228 10.9473 6.01176C11.2276 6.2278 11.3142 6.5123 11.207 6.86527C11.1169 6.98022 11.0056 7.06681 10.873 7.12504C8.02802 7.14978 5.18294 7.17452 2.33789 7.19926C1.84206 7.34868 1.48334 7.65793 1.26172 8.12699C1.15095 14.8767 1.11384 21.6306 1.15039 28.3887C2.36288 28.3763 3.57512 28.3887 4.78711 28.4258C5.22656 28.9004 5.15234 29.2715 4.56445 29.5391C3.4267 29.5762 2.28868 29.5886 1.15039 29.5762C1.01471 30.613 1.43529 31.2934 2.41211 31.6172C13.446 31.6667 24.4798 31.6667 35.5137 31.6172C36.4905 31.2934 36.9111 30.613 36.7754 29.5762C26.7806 29.5886 16.7858 29.5762 6.79102 29.5391C6.27425 29.3736 6.13818 29.0396 6.38281 28.5371C6.43851 28.4907 6.50036 28.4536 6.56836 28.4258C16.6373 28.3887 26.7064 28.3763 36.7754 28.3887C36.7878 21.7089 36.7754 15.0293 36.7383 8.34965C36.5889 7.85379 36.2796 7.49509 35.8105 7.27348C34.628 7.17787 33.4405 7.12839 32.248 7.12504C31.8744 6.90139 31.7877 6.59215 31.9883 6.1973C32.0553 6.10814 32.1418 6.04628 32.248 6.01176C33.5137 5.94184 34.7754 5.96658 36.0332 6.08598C37.0568 6.45351 37.6999 7.15859 37.9629 8.20121ZM20.6699 20.8184C21.7957 21.1678 22.909 21.5513 24.0098 21.9688C23.7129 22.1667 23.416 22.3646 23.1191 22.5625C22.9385 22.8383 22.9261 23.1228 23.082 23.4161C23.4284 23.9109 23.7747 24.4056 24.1211 24.9004C24.1739 25.039 24.1368 25.1503 24.0098 25.2344C23.7932 25.3613 23.5829 25.4973 23.3789 25.6426C22.9295 25.0695 22.5089 24.4757 22.1172 23.8614C21.9007 23.7209 21.6656 23.6838 21.4121 23.75C21.1028 23.9603 20.7936 24.1706 20.4844 24.3809C20.5445 23.1972 20.6064 22.0097 20.6699 20.8184ZM13.0254 32.8418C17.0085 32.8418 20.9915 32.8418 24.9746 32.8418C24.9622 33.708 24.9746 34.574 25.0117 35.4395C25.3366 35.9037 25.6706 36.3614 26.0137 36.8125C21.3379 36.862 16.6621 36.862 11.9863 36.8125C12.3294 36.3614 12.6634 35.9037 12.9883 35.4395C13.0254 34.574 13.0378 33.708 13.0254 32.8418Z" fill="#5A44F5"/>
<path opacity="0.919" fill-rule="evenodd" clip-rule="evenodd" d="M26.9786 5.97461C28.0921 5.96224 29.2054 5.97461 30.3184 6.01172C30.6421 6.17691 30.7534 6.43668 30.6524 6.79101C30.5906 6.95182 30.4792 7.06315 30.3184 7.125C29.2298 7.17448 28.1413 7.17448 27.0528 7.125C26.7022 6.94425 26.5908 6.65975 26.7188 6.27148C26.8006 6.16394 26.8872 6.06498 26.9786 5.97461Z" fill="#5A44F5"/>
<path opacity="0.934" fill-rule="evenodd" clip-rule="evenodd" d="M8.27531 15.4746C13.7181 15.4622 19.1608 15.4746 24.6034 15.5117C25.1005 15.9057 25.0758 16.2768 24.5292 16.625C19.1855 16.6497 13.8417 16.6745 8.49797 16.6992C8.4515 16.7549 8.41439 16.8168 8.38664 16.8848C8.33713 18.0228 8.33713 19.1608 8.38664 20.2988C8.41439 20.3668 8.4515 20.4287 8.49797 20.4844C11.6647 20.5091 14.8313 20.5339 17.998 20.5586C18.4134 20.7586 18.5248 21.0679 18.332 21.4863C18.2649 21.5755 18.1784 21.6374 18.0722 21.6719C14.8066 21.7214 11.5409 21.7214 8.27531 21.6719C7.7753 21.543 7.44131 21.2338 7.27336 20.7442C7.19083 20.0433 7.15372 19.3382 7.16203 18.6289C7.15474 17.8956 7.19185 17.1657 7.27336 16.4395C7.4546 15.9487 7.78858 15.6271 8.27531 15.4746Z" fill="#5A44F5"/>
<path opacity="0.929" fill-rule="evenodd" clip-rule="evenodd" d="M26.459 15.4746C27.5231 15.4622 28.587 15.4746 29.6504 15.5117C30.3049 15.6964 30.6636 16.1293 30.7266 16.8106C30.7761 17.9981 30.7761 19.1856 30.7266 20.3731C30.6636 21.0543 30.3049 21.4872 29.6504 21.6719C28.7103 21.7214 27.7703 21.7214 26.8301 21.6719C26.463 21.3527 26.4383 21.0064 26.7559 20.6328C26.8301 20.6081 26.9043 20.5833 26.9786 20.5586C27.795 20.5339 28.6114 20.5091 29.4278 20.4844C29.4742 20.4287 29.5114 20.3668 29.5391 20.2988C29.5515 19.7298 29.5638 19.1608 29.5762 18.5918C29.5865 17.9661 29.5494 17.3475 29.4649 16.7363C28.4932 16.6752 27.5161 16.6381 26.5332 16.625C26.1826 16.4443 26.0713 16.1597 26.1993 15.7715C26.2505 15.6342 26.337 15.5352 26.459 15.4746Z" fill="#5A44F5"/>
<path opacity="0.927" fill-rule="evenodd" clip-rule="evenodd" d="M20.1504 19.5566C20.4285 19.5486 20.7006 19.5857 20.9668 19.6679C22.3522 20.1133 23.7376 20.5586 25.123 21.0039C25.6082 21.4102 25.6948 21.8926 25.3828 22.4511C25.0683 22.7136 24.7344 22.9486 24.3809 23.1562C24.8559 23.7666 25.2517 24.4222 25.5684 25.123C25.5174 25.485 25.3443 25.7695 25.0488 25.9765C24.5741 26.3274 24.0792 26.649 23.5645 26.9414C23.207 27.0176 22.8854 26.9434 22.5996 26.7187C22.2133 26.206 21.8546 25.6742 21.5234 25.123C21.1312 25.4675 20.6859 25.7149 20.1875 25.8652C19.741 25.839 19.4441 25.6163 19.2969 25.1972C19.3246 23.5882 19.3988 21.9801 19.5195 20.373C19.5799 19.9794 19.7902 19.7072 20.1504 19.5566ZM20.6699 20.8183C20.6064 22.0096 20.5445 23.1971 20.4844 24.3808C20.7936 24.1706 21.1028 23.9602 21.4121 23.75C21.6656 23.6837 21.9007 23.7208 22.1172 23.8613C22.5089 24.4757 22.9295 25.0694 23.3789 25.6425C23.5829 25.4972 23.7932 25.3612 24.0098 25.2343C24.1368 25.1503 24.1739 25.0389 24.1211 24.9004C23.7747 24.4055 23.4284 23.9108 23.082 23.416C22.9261 23.1227 22.9385 22.8383 23.1191 22.5625C23.416 22.3645 23.7129 22.1667 24.0098 21.9687C22.909 21.5512 21.7957 21.1678 20.6699 20.8183Z" fill="#5A44F5"/>
</g>
<defs>
<clipPath id="clip0_3_9534">
<rect width="38" height="38" fill="white"/>
</clipPath>
</defs>
</svg>
