<svg width="192" height="70" viewBox="0 0 192 70" fill="none" xmlns="http://www.w3.org/2000/svg">
<path d="M131.047 57.3205C130.68 57.3914 130.034 57.5128 129.458 57.5128C127.486 57.5128 126.368 56.6834 126.368 54.4231C126.368 52.0756 127.852 51.2462 129.72 51.2462C130.295 51.2462 130.68 51.3513 130.976 51.4385V52.5475C130.758 52.4861 130.148 52.3811 129.694 52.3811C128.611 52.3811 127.756 52.5475 127.756 54.3795C127.756 56.1869 128.646 56.3873 129.624 56.3873C130.148 56.3873 130.575 56.2823 131.047 56.1869V57.3205Z" fill="#B3B3B3"/>
<path d="M136.599 54.3713C136.599 52.748 136.067 52.2502 135.202 52.2502C134.321 52.2502 133.789 52.8353 133.762 54.3713C133.736 55.9073 134.295 56.5007 135.176 56.5007C136.049 56.5007 136.599 55.9945 136.599 54.3713ZM132.374 54.3795C132.374 52.0577 133.5 51.2462 135.194 51.2462C136.887 51.2462 137.986 52.111 137.986 54.3795C137.986 56.6398 136.879 57.5128 135.176 57.5128C133.483 57.5128 132.374 56.6669 132.374 54.3795Z" fill="#B3B3B3"/>
<path d="M141.401 54.2664C142.047 54.2664 142.623 54.0739 142.623 53.2979C142.623 52.5298 142.17 52.3989 141.418 52.3989H140.991V54.2664H141.401ZM139.674 51.3335H141.366C143.234 51.3335 144.002 51.8315 144.002 53.2445C144.002 54.3973 143.409 54.7028 142.71 54.9129V55.0165L142.894 55.052C143.531 55.2881 143.906 56.5007 144.299 57.2605V57.4255H142.841C142.553 56.6139 142.248 55.3834 141.637 55.2089H140.991V57.4255H139.674V51.3335Z" fill="#B3B3B3"/>
<path d="M147.172 54.3973H147.652C148.42 54.3973 148.804 54.153 148.804 53.3934C148.804 52.6254 148.42 52.407 147.714 52.407H147.172V54.3973ZM145.854 51.3335H147.513C149.311 51.3335 150.183 51.7442 150.183 53.3061C150.183 54.8693 149.145 55.3221 147.835 55.3221H147.172V57.4255H145.854V51.3335Z" fill="#B3B3B3"/>
<path d="M155.543 54.3713C155.543 52.748 155.011 52.2502 154.147 52.2502C153.265 52.2502 152.733 52.8353 152.706 54.3713C152.68 55.9073 153.239 56.5007 154.121 56.5007C154.994 56.5007 155.543 55.9945 155.543 54.3713ZM151.319 54.3795C151.319 52.0577 152.445 51.2462 154.138 51.2462C155.831 51.2462 156.931 52.111 156.931 54.3795C156.931 56.6398 155.823 57.5128 154.121 57.5128C152.428 57.5128 151.319 56.6669 151.319 54.3795Z" fill="#B3B3B3"/>
<path d="M160.344 54.2664C160.992 54.2664 161.566 54.0739 161.566 53.2979C161.566 52.5298 161.114 52.3989 160.363 52.3989H159.936V54.2664H160.344ZM158.618 51.3335H160.311C162.179 51.3335 162.947 51.8315 162.947 53.2445C162.947 54.3973 162.353 54.7028 161.655 54.9129V55.0165L161.839 55.052C162.476 55.2881 162.851 56.5007 163.244 57.2605V57.4255H161.786C161.498 56.6139 161.192 55.3834 160.581 55.2089H159.936V57.4255H158.618V51.3335Z" fill="#B3B3B3"/>
<path d="M167.819 55.1829L167.208 53.0795L167.138 52.7386H167.051L166.981 53.0795L166.344 55.1829H167.819ZM164.283 57.2864L166.458 51.2899H167.749L170.027 57.2864V57.4255H168.568L168.062 56.0642H166.152L165.705 57.4255H164.283V57.2864Z" fill="#B3B3B3"/>
<path d="M172.271 52.3811L170.56 52.4248V51.3335H175.31V52.4248L173.589 52.3811V57.4255H172.271V52.3811Z" fill="#B3B3B3"/>
<path d="M176.707 57.4255V51.3335H178.025V57.4255H176.707Z" fill="#B3B3B3"/>
<path d="M183.811 54.3713C183.811 52.748 183.279 52.2502 182.415 52.2502C181.535 52.2502 181.001 52.8353 180.975 54.3713C180.949 55.9073 181.507 56.5007 182.389 56.5007C183.261 56.5007 183.811 55.9945 183.811 54.3713ZM179.589 54.3795C179.589 52.0577 180.713 51.2462 182.406 51.2462C184.099 51.2462 185.199 52.111 185.199 54.3795C185.199 56.6398 184.091 57.5128 182.389 57.5128C180.696 57.5128 179.589 56.6669 179.589 54.3795Z" fill="#B3B3B3"/>
<path d="M186.886 51.3335H188.037L190.289 54.5364L190.603 55.0603H190.682V51.3335H192V57.4255H190.874L188.561 54.1L188.299 53.6552H188.204V57.4255H186.886V51.3335Z" fill="#B3B3B3"/>
<path d="M45.2766 9.92491L35.4048 46.0023H29.6683L22.6903 19.7969L15.6093 46.0023H9.87191L0 9.92491H5.68547L12.7146 36.1305L19.7957 9.92491H25.4292L32.5621 36.1305L39.5919 9.92491H45.2766Z" fill="#B3B3B3"/>
<path d="M47.9087 10.0287L53.5942 9.56346V18.4014L53.4906 21.7093H53.6979C56.3334 20.7272 58.4531 20.262 61.0374 20.262C65.6378 20.262 68.7384 22.3301 68.7384 30.2373V46.0023H63.0529V30.7024C63.0529 25.9476 60.727 25.3276 58.0917 25.3276C56.437 25.3276 55.0415 25.6896 53.5942 26.103V46.0023H47.9087V10.0287Z" fill="#B3B3B3"/>
<path d="M73.6982 20.6242H79.3838V46.0023H73.6982V20.6242ZM76.541 10.3901C79.4874 10.3901 79.9525 12.0959 79.9525 14.0084C79.9525 15.9208 79.332 17.6785 76.541 17.6785C73.7501 17.6785 73.1812 15.9208 73.1812 14.0084C73.1812 12.0959 73.6982 10.3901 76.541 10.3901Z" fill="#B3B3B3"/>
<path d="M84.1895 20.6242H88.0662L88.8416 22.6915H89.2039C90.7022 21.3997 93.0792 20.262 96.1811 20.262C96.5425 20.262 96.9559 20.262 97.3693 20.3139V25.8957C96.3365 25.7416 95.2508 25.5862 94.1651 25.5862C92.614 25.5862 91.3741 25.9476 89.8749 26.6198V46.0023H84.1895V20.6242Z" fill="#B3B3B3"/>
<path d="M99.7971 46.0023V10.0287L105.483 9.56346V46.0023H99.7971Z" fill="#B3B3B3"/>
<path d="M151.274 33.4413C151.274 28.6357 150.498 24.7075 145.95 24.7075C141.35 24.7075 140.212 28.4803 140.212 33.4413C140.212 38.0414 141.143 42.0219 145.692 42.0219C150.24 42.0219 151.274 38.2488 151.274 33.4413ZM145.898 20.2619C153.961 20.2619 157.064 25.0171 157.064 33.4413C157.064 41.3493 154.168 46.5193 145.794 46.5193C137.422 46.5193 134.475 41.3493 134.475 33.4413C134.475 25.0171 137.835 20.2619 145.898 20.2619Z" fill="#B3B3B3"/>
<path d="M176.766 33.4413C176.766 28.6357 175.991 24.7075 171.444 24.7075C166.843 24.7075 165.705 28.4803 165.705 33.4413C165.705 38.0414 166.636 42.0219 171.185 42.0219C175.733 42.0219 176.766 38.2488 176.766 33.4413ZM171.392 20.2619C179.454 20.2619 182.557 25.0171 182.557 33.4413C182.557 41.3493 179.662 46.5193 171.288 46.5193C162.915 46.5193 159.968 41.3493 159.968 33.4413C159.968 25.0171 163.328 20.2619 171.392 20.2619Z" fill="#B3B3B3"/>
<path d="M186.237 46.0023V10.0287L191.922 9.56346V46.0023H186.237Z" fill="#B3B3B3"/>
<path d="M115.82 41.2989C117.421 41.3494 118.301 41.4013 119.954 41.4013C123.468 41.4013 125.796 39.5406 125.796 32.1487C125.796 27.0839 123.727 25.7416 120.006 25.7416C118.559 25.7416 117.215 25.998 115.82 26.4645V41.2989ZM110.134 20.6234H114.424L114.889 22.4841C116.596 21.5539 119.747 20.262 122.591 20.262C127.758 20.262 131.531 24.0351 131.531 33.079C131.531 41.9702 127.551 46.3638 120.937 46.3638C118.502 46.3638 115.82 45.8469 115.82 45.8469V57.4757L110.134 58.0963V20.6234Z" fill="#B3B3B3"/>
<path d="M138.281 5.03054C134.029 0.104218 120.538 4.43443 105.483 14.8544V17.4802C118.742 8.05546 130.43 3.70681 133.777 7.58551C137.957 12.4283 127.56 28.2688 110.552 42.9467C93.5422 57.6256 76.3592 65.5844 72.1803 60.7413C70.0097 58.2258 71.7797 52.7442 76.3592 46.0023H73.6972C68.0267 54.4587 65.9011 61.5634 68.8125 64.9371C74.1201 71.0878 93.9733 62.6731 113.152 46.1237C132.328 29.5744 143.588 11.1808 138.281 5.03054Z" fill="#B3B3B3"/>
</svg>
