<svg width="192" height="70" viewBox="0 0 192 70" fill="none" xmlns="http://www.w3.org/2000/svg">
<path fill-rule="evenodd" clip-rule="evenodd" d="M0.609159 48.3041V42.5515C3.85771 43.5667 6.76779 44.1081 9.33941 44.1081C12.8587 44.1081 14.5506 43.1607 14.5506 41.3334C14.5506 40.6567 14.2799 40.0475 13.8061 39.5739C13.2647 39.1001 11.9788 38.4233 9.81322 37.4759C5.9557 35.987 3.45166 34.6334 2.30111 33.483C0.744507 31.9942 0 30.1669 0 27.9335C0 25.0234 1.08279 22.8577 3.31613 21.3011C5.48171 19.8123 8.32421 19.0677 11.7757 19.0677C13.6706 19.0677 16.5131 19.4062 20.1677 20.1505V25.7C17.4605 24.6172 14.9565 24.0758 12.5878 24.0758C9.33923 24.0758 7.64729 24.9557 7.64729 26.783C7.64729 27.4597 7.98575 28.0011 8.66249 28.4072C9.20388 28.7456 10.6927 29.49 13.1969 30.5727C16.7838 32.1293 19.1525 33.5506 20.303 34.701C21.7243 36.1222 22.401 37.8817 22.401 40.1151C22.401 43.2959 21.0475 45.6646 18.2728 47.3565C16.0394 48.71 13.1294 49.3867 9.61011 49.3867C6.63244 49.3871 3.65459 49.0486 0.609159 48.3041Z" fill="#B3B3B3"/>
<path fill-rule="evenodd" clip-rule="evenodd" d="M27.0708 19.6091H35.1921V48.7779H27.0708V19.6091Z" fill="#B3B3B3"/>
<path fill-rule="evenodd" clip-rule="evenodd" d="M42.7041 48.7779V19.6091H63.6163V24.8879H50.5547V31.4526H61.9245V36.2577H50.5547V43.2285H63.9547V48.7779H42.7041Z" fill="#B3B3B3"/>
<path fill-rule="evenodd" clip-rule="evenodd" d="M69.3013 48.7779V19.6091H79.8588L87.2356 38.2204L94.7477 19.6091H104.832V48.7779H97.0488V28.1365L88.5215 49.1164H83.4456L75.0539 28.1365V48.7779H69.3013Z" fill="#B3B3B3"/>
<path fill-rule="evenodd" clip-rule="evenodd" d="M112.276 48.7779V19.6091H133.256V24.8879H120.195V31.4526H131.564V36.2577H120.195V43.2285H133.595V48.7779H112.276Z" fill="#B3B3B3"/>
<path fill-rule="evenodd" clip-rule="evenodd" d="M138.941 48.7779V19.6091H148.416L158.432 39.1V19.6091H164.184V48.7779H154.98L144.694 28.9485V48.7779H138.941Z" fill="#B3B3B3"/>
<path fill-rule="evenodd" clip-rule="evenodd" d="M170.005 48.3041V42.5516C173.253 43.5668 176.163 44.1082 178.735 44.1082C182.254 44.1082 183.946 43.1607 183.946 41.3334C183.946 40.6567 183.676 40.0475 183.202 39.5739C182.66 39.1001 181.307 38.4233 179.209 37.4759C175.351 35.9193 172.847 34.5658 171.697 33.4153C170.208 31.9264 169.463 30.0991 169.463 27.798C169.463 24.8879 170.546 22.7222 172.78 21.2333C174.945 19.7445 177.788 19 181.307 19C183.269 19 185.841 19.3385 188.954 19.9474L189.699 20.0828V25.6323C186.992 24.5495 184.488 24.0081 182.119 24.0081C178.87 24.0081 177.246 24.8879 177.246 26.7152C177.246 27.392 177.585 27.9334 178.261 28.3394C178.803 28.6779 180.292 29.4222 182.796 30.505C186.315 32.0616 188.684 33.4828 189.902 34.6332C191.323 36.0545 192 37.814 192 40.0473C192 43.2281 190.646 45.5968 187.872 47.2888C185.638 48.6422 182.728 49.319 179.209 49.319C176.028 49.3871 173.05 49.0487 170.005 48.3041Z" fill="#B3B3B3"/>
</svg>
