<svg width="192" height="70" viewBox="0 0 192 70" fill="none" xmlns="http://www.w3.org/2000/svg">
<g clip-path="url(#clip0_262_107)">
<path fill-rule="evenodd" clip-rule="evenodd" d="M105.284 34.0518C104.314 33.4488 103.304 32.9138 102.26 32.4508C102.26 32.4508 98.6844 30.7927 97.9742 30.0042C97.9742 30.0042 96.5838 28.6921 97.3994 27.1663C97.3994 27.1663 97.7395 26.1702 99.205 26.1702C99.205 26.1702 101.122 26.2755 101.122 27.8495V30.0734H107.992V26.7992C107.992 26.7992 108.522 21.4394 99.9002 21.2017C99.9002 21.2017 93.12 20.7563 91.1729 24.4097C91.1729 24.4097 90.4086 25.2223 90.4086 28.0601V30.1095C90.4086 30.1095 90.3333 32.4749 91.5401 33.9977C91.5401 33.9977 92.2232 34.9968 93.9055 36.1043C93.9055 36.1043 97.3212 37.943 99.3706 38.9963C99.3706 38.9963 101.441 40.179 101.176 42.0569C101.176 42.0569 101.011 43.9859 99.0124 43.9076C99.0124 43.9076 97.1827 43.8264 97.1827 41.9335V39.7125H89.8518V42.9386C89.8518 42.9386 89.6442 49.1109 99.0546 49.1109C99.0546 49.1109 108.041 49.2945 108.462 42.7761V40.1519C108.462 40.1519 108.778 36.1554 105.284 34.0548V34.0518Z" fill="#B3B3B3"/>
<path fill-rule="evenodd" clip-rule="evenodd" d="M70.1101 21.972L67.8109 36.3871H67.2722L65.0754 22.0984H53.5975L53.0227 48.205H59.8179L59.8992 28.5356H60.4349L64.0341 48.202H71.1845L74.7416 28.5446H75.214L75.3796 48.205H82.2109L81.4736 21.972H70.1101Z" fill="#B3B3B3"/>
<path fill-rule="evenodd" clip-rule="evenodd" d="M29.6607 22.0803L25.1406 48.1779H32.4565L35.1349 27.9426H35.7367L38.4121 48.1779H45.725L41.2078 22.0803H29.6607Z" fill="#B3B3B3"/>
<path fill-rule="evenodd" clip-rule="evenodd" d="M183.155 33.6936V37.5426H185.03V41.6746C185.03 43.6909 183.303 43.73 183.303 43.73C181.196 43.73 181.284 41.81 181.284 41.81V27.5304C181.284 26.0588 183.146 25.9805 183.146 25.9805C184.934 25.9805 184.952 27.735 184.952 27.735V29.9078H191.841C192.063 25.6675 191.221 24.6413 191.221 24.6413C189.511 20.8043 183.047 21.012 183.047 21.012C173.116 21.012 174.217 28.6348 174.217 28.6348V42.454C174.431 49.6013 184.218 48.8761 184.383 48.867C188.738 48.3855 190.05 47.0042 190.05 47.0042C190.773 46.4707 191.307 45.7199 191.573 44.8615C191.919 44.1363 192.006 41.825 192.006 41.825V33.6996L183.155 33.6936Z" fill="#B3B3B3"/>
<path fill-rule="evenodd" clip-rule="evenodd" d="M160.326 37.94H160.025L153.034 21.9781H144.674V48.2111H151.478L151.072 32.2492H151.373L158.617 48.2111H166.724V21.9751H159.835L160.326 37.94Z" fill="#B3B3B3"/>
<path fill-rule="evenodd" clip-rule="evenodd" d="M128.059 41.6746C128.059 41.6746 128.159 43.8294 126.163 43.8294C126.163 43.8294 124.057 43.9407 124.057 41.7228L124.036 21.9901H116.575V41.5513C116.575 41.5513 115.811 48.9604 126.266 48.9604C126.266 48.9604 135.354 49.0687 135.354 41.8913V21.9931H128.059V41.6746Z" fill="#B3B3B3"/>
<path fill-rule="evenodd" clip-rule="evenodd" d="M15.4292 34.0518C14.4648 33.4483 13.4592 32.9133 12.4198 32.4508C12.4198 32.4508 8.84764 30.7956 8.13742 30.0042C8.13742 30.0042 6.74406 28.689 7.55961 27.1693C7.55961 27.1693 7.90268 26.1702 9.36526 26.1702C9.36526 26.1702 11.2853 26.2755 11.2853 27.8494V30.0734H18.1587V26.7991C18.1587 26.7991 18.6583 21.4364 10.0454 21.2107C9.51208 21.1829 8.97768 21.1829 8.44438 21.2107C8.44438 21.2107 3.22306 21.4906 1.35723 24.3555C1.34413 24.3739 1.33207 24.393 1.32112 24.4127C1.32112 24.4127 0.556731 25.2252 0.556731 28.0631V30.1125C0.556731 30.1125 0.478485 32.4779 1.68827 34.0006C1.68827 34.0006 2.3714 34.9998 4.05366 36.1072C4.05366 36.1072 7.46632 37.946 9.51874 38.9993C9.51874 38.9993 11.5892 40.179 11.3244 42.0598C11.3244 42.0598 11.1559 43.9889 9.16062 43.9106C9.16062 43.9106 7.3309 43.8294 7.3309 41.9364V39.7125H-1.05007e-05V42.9416C-1.05007e-05 42.9416 -0.204649 49.1139 9.20275 49.1139C9.20275 49.1139 18.1888 49.2974 18.6101 42.7791V40.1549C18.6101 40.1549 18.9111 36.1584 15.4292 34.0578V34.0518Z" fill="#B3B3B3"/>
</g>
<defs>
<clipPath id="clip0_262_107">
<rect width="192" height="28.1108" fill="white" transform="translate(0 21)"/>
</clipPath>
</defs>
</svg>
