<svg width="192" height="70" viewBox="0 0 192 70" fill="none" xmlns="http://www.w3.org/2000/svg">
<path fill-rule="evenodd" clip-rule="evenodd" d="M82.121 34.7076C84.5155 33.7764 86.0674 31.4706 86.0231 28.9432C86.0231 23.7552 82.3427 21.1833 77.2877 21.1833H64.0295V49.3847H78.4406C82.8748 49.3847 87.2203 46.2808 87.2203 41.5362C87.2203 35.9048 82.121 34.7519 82.121 34.7076ZM70.9469 27.0365H76.0905C77.4651 26.9478 78.6623 28.012 78.751 29.3866C78.751 29.4753 78.751 29.6083 78.751 29.697C78.7067 31.1603 77.5538 32.2688 76.0905 32.2688H70.9025L70.9469 27.0365ZM76.1349 43.4873H70.9912V37.9446H76.0018C78.5293 37.9446 79.7265 39.0531 79.7265 40.6937C79.7265 42.7335 78.2189 43.4873 76.1349 43.4873Z" fill="#B3B3B3"/>
<path fill-rule="evenodd" clip-rule="evenodd" d="M102.474 20.4739C94.315 20.4739 89.5261 26.9921 89.5261 35.2397C89.5261 43.4873 94.315 50.0055 102.474 50.0055C110.633 50.0055 115.422 43.5316 115.422 35.2397C115.422 26.9478 110.677 20.4739 102.474 20.4739ZM102.474 43.2656C98.4831 43.2656 96.4877 39.6739 96.4877 35.2397C96.4877 30.8055 98.4831 27.2582 102.474 27.2582C106.465 27.2582 108.504 30.8499 108.504 35.2397C108.504 39.7182 106.465 43.2656 102.474 43.2656Z" fill="#B3B3B3"/>
<path fill-rule="evenodd" clip-rule="evenodd" d="M130.454 32.2688L129.478 32.0471C127.084 31.5594 125.177 30.9386 125.177 29.2092C125.177 27.3469 126.995 26.5931 128.591 26.5931C130.808 26.6374 132.892 27.5686 134.356 29.2092L138.745 24.8637C136.75 22.6023 133.513 20.4296 128.458 20.4296C122.516 20.4296 117.994 23.7552 117.994 29.2979C117.994 34.3529 121.63 36.836 126.064 37.7672L127.039 37.9889C130.72 38.7427 132.094 39.3192 132.094 41.0928C132.094 42.7778 130.587 43.8864 128.281 43.8864C125.532 43.8864 123.048 42.6892 121.142 40.2504L116.663 44.6845C119.146 47.6554 122.295 49.9612 128.37 49.9612C133.646 49.9612 139.278 46.946 139.278 40.7825C139.366 34.3529 134.489 33.1113 130.454 32.2688Z" fill="#B3B3B3"/>
<path fill-rule="evenodd" clip-rule="evenodd" d="M155.063 43.2655C151.959 43.2655 148.722 40.6937 148.722 35.0623C148.722 30.0517 151.738 27.2581 154.886 27.2581C157.369 27.2581 158.832 28.411 159.985 30.4064L165.661 26.6374C162.823 22.3362 159.453 20.5182 154.797 20.5182C146.284 20.5182 141.672 27.1251 141.672 35.1066C141.672 43.4872 146.771 50.0498 154.708 50.0498C160.296 50.0498 162.956 48.0988 165.838 43.9307L160.118 40.0729C158.965 41.9353 157.724 43.2655 155.063 43.2655Z" fill="#B3B3B3"/>
<path fill-rule="evenodd" clip-rule="evenodd" d="M184.595 21.1833V31.5593H176.037V21.1833H168.632V49.3847H176.037V38.2549H184.595V49.3847H192V21.1833H184.595Z" fill="#B3B3B3"/>
<path d="M21.3727 14C9.57783 14 0 23.5778 0 35.3727C0 47.1677 9.57783 56.7455 21.3727 56.7455C33.1677 56.7455 42.7455 47.1677 42.7455 35.3727C42.7455 23.5778 33.1677 14 21.3727 14ZM21.3727 54.7501C10.6864 54.7501 1.99538 46.0591 1.99538 35.3727C1.99538 24.6864 10.6864 15.9954 21.3727 15.9954C32.0591 15.9954 40.7501 24.6864 40.7501 35.3727C40.7501 46.0591 32.0591 54.7501 21.3727 54.7501Z" fill="#B3B3B3"/>
<path d="M30.1968 22.0259H28.7335V29.3423H14.0564V22.0259H12.5487C5.188 26.9035 3.14828 36.7917 8.02587 44.1968C9.2231 46.0148 10.7751 47.5668 12.5487 48.7196H14.0564V41.4032H28.7335V48.7196H30.1968C37.5575 43.842 39.5972 33.9538 34.764 26.5931C33.5668 24.7751 32.0148 23.2231 30.1968 22.0259ZM12.0166 45.8374C6.2522 40.6938 5.7201 31.8254 10.8637 26.061C11.2185 25.6619 11.6176 25.2628 12.0166 24.9081V45.8374ZM28.7335 39.3635H14.0564V31.3377H28.7335V39.3635ZM30.7289 45.7931V41.3589V29.3423V24.9081C36.4933 30.0961 36.9811 38.9644 31.7931 44.7289C31.4383 45.0836 31.0836 45.4384 30.7289 45.7931Z" fill="#B3B3B3"/>
</svg>
