<svg width="192" height="70" viewBox="0 0 192 70" fill="none" xmlns="http://www.w3.org/2000/svg">
<path fill-rule="evenodd" clip-rule="evenodd" d="M81.252 21.5114C78.5786 22.8486 75.9052 24.1192 73.2308 25.4225L71.0243 20.9439L79.0456 17C79.8208 18.484 80.5566 19.9884 81.252 21.5114ZM32.1199 31.1049V31.1377L40.2755 18.3711H60.3625V23.2838H56.5859L56.552 45.7435L60.3625 45.7773V50.7567H35.4285V45.7773H39.4063L39.4402 30.8042L39.4063 30.7703L26.1039 51.6927H26.0711L10.4288 31.2722L10.3621 31.2383L10.3283 45.7435L14.6406 45.7773V50.7567H0V45.7773H4.31234L4.34621 23.3177L0 23.2838V18.3711H22.2606L32.1199 31.1049ZM149.501 45.7435L153.646 45.7773V50.7567H128.379V45.7773H132.556L132.59 23.3177L128.379 23.2838V18.3711H149.501V45.7435ZM125.37 32.1076C127.076 34.4474 127.408 37.556 127.076 40.6306H106.119C105.785 43.0701 106.887 45.3432 108.994 46.5799C110.563 47.5497 113.036 47.3157 114.508 46.2135C115.56 45.3625 116.3 44.1866 116.613 42.8699H126.373C124.77 46.5799 120.993 49.8208 117.182 50.7916C110.698 52.6297 102.476 52.329 96.6613 49.32C92.2494 47.1813 89.6078 42.6349 90.043 37.6904C90.1097 33.2108 93.8535 29.233 97.8641 27.7624C104.815 25.0551 114.543 24.8211 121.159 28.4315C122.696 29.2997 124.302 30.5364 125.37 32.1076ZM189.174 30.9376C191.648 33.5115 192.35 37.0203 191.848 40.6306H170.926C170.591 43.0034 171.561 45.1421 173.565 46.4454C175.136 47.4501 177.576 47.4501 179.113 46.313C180.246 45.4837 181.041 44.273 181.352 42.9038L191.18 42.8699C189.542 46.5142 185.832 49.7551 182.055 50.7578C175.503 52.6297 167.08 52.3957 161.2 49.2204C156.653 46.8816 154.18 42.1023 154.882 36.9556C155.217 32.5099 159.46 28.6665 163.505 27.4299C171.092 24.9227 181.42 24.7893 187.937 29.7359L189.174 30.9376ZM84.8614 45.7435L89.1399 45.7773V50.7567H63.6712V45.7773H67.649L67.6828 31.4395L63.6712 31.4056V26.4262H84.8614V45.7435Z" fill="#B3B3B3"/>
<path fill-rule="evenodd" clip-rule="evenodd" d="M175.974 30.7037C176.941 31.8798 176.541 33.0497 176.541 35.952H170.893L170.927 31.8398C171.061 31.0372 171.728 30.2357 172.53 29.935C173.701 29.5009 175.137 29.7349 175.974 30.7037ZM111.199 30.7037C112.169 31.8798 111.769 33.0497 111.769 35.952H106.12L106.152 31.8398C106.287 31.0372 106.954 30.2357 107.757 29.935C108.926 29.5009 110.363 29.7349 111.199 30.7037Z" fill="white"/>
</svg>
