<svg width="192" height="70" viewBox="0 0 192 70" fill="none" xmlns="http://www.w3.org/2000/svg">
<path d="M106.323 49.5932V52.9158H94.2202V16.373H97.5428V49.5932H106.323Z" fill="#B3B3B3"/>
<path d="M131 35C131 54.3297 115.33 70 96 70C76.6703 70 61 54.3297 61 35C61 15.6703 76.6703 0 96 0C96.517 0 97.0327 0.0124755 97.5428 0.0332676V3.59703C97.0327 3.57069 96.517 3.5596 96 3.5596C78.6358 3.5596 64.5596 17.6358 64.5596 35C64.5596 52.3642 78.6358 66.4404 96 66.4404C112.767 66.4404 126.467 53.3164 127.39 36.7798H106.797V33.4572H130.967C130.988 33.9673 131 34.483 131 35Z" fill="#B3B3B3"/>
<path d="M82.8303 27.2875C85.8442 27.2875 88.2875 24.8442 88.2875 21.8303C88.2875 18.8163 85.8442 16.373 82.8303 16.373C79.8163 16.373 77.373 18.8163 77.373 21.8303C77.373 24.8442 79.8163 27.2875 82.8303 27.2875Z" fill="#B3B3B3"/>
</svg>
