<svg width="81" height="80" viewBox="0 0 81 80" fill="none" xmlns="http://www.w3.org/2000/svg">
<g clip-path="url(#clip0_232_93)">
<path opacity="0.943" fill-rule="evenodd" clip-rule="evenodd" d="M8.70313 -0.078125C29.8489 -0.078125 50.9948 -0.078125 72.1406 -0.078125C74.4238 0.669475 75.8039 2.23197 76.2813 4.60938C76.3855 26.3281 76.3855 48.0469 76.2813 69.7656C75.6727 72.6917 73.8758 74.2542 70.8906 74.4531C70.9408 75.7127 70.8627 76.9627 70.6563 78.2031C70.288 78.9617 69.7411 79.5345 69.0156 79.9219C67.4531 79.9219 65.8906 79.9219 64.3281 79.9219C63.5369 79.5206 62.99 78.8956 62.6875 78.0469C62.6094 76.8502 62.5834 75.6522 62.6094 74.4531C47.8177 74.4531 33.0261 74.4531 18.2344 74.4531C18.2603 75.6522 18.2344 76.8502 18.1563 78.0469C17.8538 78.8956 17.3069 79.5206 16.5156 79.9219C14.9531 79.9219 13.3906 79.9219 11.8281 79.9219C11.1026 79.5345 10.5557 78.9617 10.1875 78.2031C9.98102 76.9627 9.90289 75.7127 9.95313 74.4531C6.96797 74.2542 5.1711 72.6917 4.5625 69.7656C4.45833 48.0469 4.45833 26.3281 4.5625 4.60938C5.03982 2.23197 6.42004 0.669475 8.70313 -0.078125ZM9.48438 2.57812C30.1094 2.55208 50.7344 2.57812 71.3594 2.65625C72.4159 2.93177 73.1191 3.5828 73.4688 4.60938C73.5469 9.45284 73.573 14.2966 73.5469 19.1406C51.4636 19.1406 29.3802 19.1406 7.29688 19.1406C7.27085 14.2966 7.29688 9.45284 7.375 4.60938C7.75264 3.58045 8.45577 2.90336 9.48438 2.57812ZM7.29688 21.9531C29.3802 21.9531 51.4636 21.9531 73.5469 21.9531C73.573 37.8908 73.5469 53.8283 73.4688 69.7656C73.0317 70.962 72.1723 71.613 70.8906 71.7188C50.5781 71.823 30.2656 71.823 9.95313 71.7188C8.67139 71.613 7.81202 70.962 7.375 69.7656C7.29688 53.8283 7.27083 37.8908 7.29688 21.9531ZM12.7656 74.4531C13.7031 74.4531 14.6406 74.4531 15.5781 74.4531C15.5781 75.3906 15.5781 76.3281 15.5781 77.2656C14.6406 77.2656 13.7031 77.2656 12.7656 77.2656C12.7656 76.3281 12.7656 75.3906 12.7656 74.4531ZM65.2656 74.4531C66.2031 74.4531 67.1406 74.4531 68.0781 74.4531C68.0781 75.3906 68.0781 76.3281 68.0781 77.2656C67.1406 77.2656 66.2031 77.2656 65.2656 77.2656C65.2656 76.3281 65.2656 75.3906 65.2656 74.4531Z" fill="white"/>
<path opacity="0.942" fill-rule="evenodd" clip-rule="evenodd" d="M21.5155 5.39068C24.8008 5.16985 26.9102 6.62818 27.8436 9.76568C28.0604 11.1026 27.878 12.3786 27.2968 13.5938C27.958 14.4329 27.906 15.2142 27.1405 15.9376C26.463 16.2847 25.838 16.2066 25.2655 15.7032C22.3558 17.0101 19.8818 16.4371 17.8436 13.9844C16.7947 12.0708 16.7166 10.1177 17.6093 8.12505C16.8419 6.87329 17.1544 6.01391 18.5468 5.54693C18.9436 5.68788 19.3343 5.84413 19.7186 6.01568C20.3307 5.79263 20.9297 5.5843 21.5155 5.39068ZM21.828 8.35943C22.9163 9.36943 23.984 10.4111 25.0311 11.4844C25.1308 11.3112 25.209 11.1289 25.2655 10.9376C24.9588 8.87944 23.8129 8.02007 21.828 8.35943ZM19.7968 10.2344C19.6422 10.9251 19.7204 11.6021 20.0311 12.2657C20.8011 13.3721 21.8168 13.7627 23.078 13.4376C22.0049 12.3382 20.9111 11.2705 19.7968 10.2344Z" fill="white"/>
<path opacity="0.937" fill-rule="evenodd" clip-rule="evenodd" d="M39.3282 5.39074C42.4592 5.08796 44.5946 6.39004 45.7345 9.29699C46.9446 9.54324 47.4395 10.2724 47.2189 11.4845C46.8426 11.9728 46.3478 12.2853 45.7345 12.422C44.4143 15.7361 42.0184 16.9601 38.547 16.0939C36.7864 15.4528 35.6404 14.2288 35.1095 12.422C33.7485 12.1342 33.3059 11.3529 33.7813 10.0782C34.1759 9.73837 34.6185 9.47795 35.1095 9.29699C35.8756 7.28013 37.2818 5.97804 39.3282 5.39074ZM39.6407 8.20324C39.0446 8.38029 38.5759 8.74488 38.2345 9.29699C39.6928 9.50532 41.1512 9.50532 42.6095 9.29699C41.8528 8.34982 40.8632 7.98523 39.6407 8.20324ZM38.0782 12.422C39.6648 14.1111 41.2273 14.0851 42.7657 12.3439C41.1759 12.215 39.6134 12.241 38.0782 12.422Z" fill="white"/>
<path opacity="0.942" fill-rule="evenodd" clip-rule="evenodd" d="M57.453 5.3907C58.7318 5.28734 59.9557 5.49567 61.1249 6.0157C61.5093 5.84415 61.8999 5.6879 62.2968 5.54695C63.6891 6.01393 64.0016 6.87331 63.2343 8.12507C64.5224 11.0275 63.9494 13.4754 61.5155 15.4688C59.5652 16.6379 57.5861 16.716 55.578 15.7032C54.3155 16.5301 53.4821 16.2176 53.078 14.7657C53.2122 14.367 53.3685 13.9764 53.5468 13.5938C52.0685 9.4941 53.3705 6.75973 57.453 5.3907ZM57.6093 8.2032C56.1558 8.84499 55.5569 9.93874 55.8124 11.4844C56.8801 10.4167 57.9479 9.34902 59.0155 8.28132C58.5496 8.20351 58.0808 8.17748 57.6093 8.2032ZM60.8905 10.2344C59.8805 11.3227 58.8388 12.3904 57.7655 13.4376C58.7771 13.7695 59.6626 13.5351 60.4218 12.7344C61.0863 11.9598 61.2426 11.1265 60.8905 10.2344Z" fill="white"/>
<path opacity="0.923" fill-rule="evenodd" clip-rule="evenodd" d="M16.8281 27.4219C32.5573 27.3958 48.2866 27.4219 64.0156 27.5C66.1753 27.7328 67.5034 28.9047 68 31.0156C68.1042 41.5364 68.1042 52.0574 68 62.5781C67.698 64.4428 66.6303 65.6147 64.7969 66.0938C48.5469 66.198 32.2969 66.198 16.0469 66.0938C14.2135 65.6147 13.1458 64.4428 12.8438 62.5781C12.7396 52.0574 12.7396 41.5364 12.8438 31.0156C13.3668 28.9031 14.695 27.7052 16.8281 27.4219ZM16.6719 30.2344C16.2192 30.3997 15.8806 30.7122 15.6563 31.1719C15.5521 41.6406 15.5521 52.1094 15.6563 62.5781C15.8386 62.8646 16.0729 63.0989 16.3594 63.2813C32.4011 63.3855 48.4427 63.3855 64.4844 63.2813C64.7708 63.0989 65.0052 62.8646 65.1875 62.5781C65.2917 52.1094 65.2917 41.6406 65.1875 31.1719C65.0648 30.8928 64.8827 30.6585 64.6406 30.4688C48.6598 30.2355 32.6703 30.1574 16.6719 30.2344Z" fill="white"/>
<path opacity="0.946" fill-rule="evenodd" clip-rule="evenodd" d="M28.8594 33.0469C36.5678 33.0208 44.2763 33.0469 51.9844 33.125C52.2634 33.2477 52.4978 33.4299 52.6875 33.6719C53.1277 35.49 52.8152 37.1567 51.75 38.6719C51.0938 39.2475 50.3386 39.6381 49.4844 39.8438C43.4427 39.948 37.4011 39.948 31.3594 39.8438C28.6753 38.9858 27.5555 37.1369 28 34.2969C28.0766 33.7272 28.363 33.3105 28.8594 33.0469ZM30.7344 35.7031C30.7716 36.2716 31.0319 36.7142 31.5156 37.0313C37.4531 37.1355 43.3906 37.1355 49.3281 37.0313C49.8119 36.7142 50.0722 36.2716 50.1094 35.7031C43.6511 35.7031 37.1927 35.7031 30.7344 35.7031Z" fill="white"/>
</g>
<defs>
<clipPath id="clip0_232_93">
<rect width="80" height="80" fill="white" transform="translate(0.5)"/>
</clipPath>
</defs>
</svg>
