<svg width="81" height="80" viewBox="0 0 81 80" fill="none" xmlns="http://www.w3.org/2000/svg">
<g clip-path="url(#clip0_232_29)">
<path opacity="0.997" fill-rule="evenodd" clip-rule="evenodd" d="M16.8281 -0.078125C32.5573 -0.078125 48.2864 -0.078125 64.0156 -0.078125C65.2627 0.4139 66.122 1.29932 66.5938 2.57812C66.698 27.4739 66.698 52.3698 66.5938 77.2656C66.122 78.5444 65.2627 79.4298 64.0156 79.9219C48.2864 79.9219 32.5573 79.9219 16.8281 79.9219C15.5811 79.4298 14.7217 78.5444 14.25 77.2656C14.1458 52.3698 14.1458 27.4739 14.25 2.57812C14.7217 1.29932 15.5811 0.4139 16.8281 -0.078125ZM17.9219 2.42188C24.1719 2.42188 30.4219 2.42188 36.6719 2.42188C36.6719 17.4219 36.6719 32.4219 36.6719 47.4219C30.0052 47.4219 23.3386 47.4219 16.6719 47.4219C16.6458 32.8384 16.6719 18.2552 16.75 3.67188C16.8563 2.96711 17.2469 2.55044 17.9219 2.42188ZM39.1719 2.42188C47.0888 2.39583 55.0053 2.42188 62.9219 2.5C63.625 2.57812 64.0156 2.96875 64.0938 3.67188C64.1719 18.2552 64.198 32.8384 64.1719 47.4219C55.8386 47.4219 47.5052 47.4219 39.1719 47.4219C39.1719 32.4219 39.1719 17.4219 39.1719 2.42188ZM21.6719 24.9219C25.0052 24.9219 28.3386 24.9219 31.6719 24.9219C31.6719 26.1719 31.6719 27.4219 31.6719 28.6719C28.3386 28.6719 25.0052 28.6719 21.6719 28.6719C21.6719 27.4219 21.6719 26.1719 21.6719 24.9219ZM21.6719 31.1719C22.0886 31.1719 22.5052 31.1719 22.9219 31.1719C22.8548 32.3355 22.933 33.4814 23.1563 34.6094C23.2734 34.7072 23.4038 34.7853 23.5469 34.8438C24.5886 34.8698 25.6302 34.8958 26.6719 34.9219C27.8334 34.9427 28.9792 34.8645 30.1094 34.6875C30.2072 34.5703 30.2853 34.44 30.3438 34.2969C30.4219 33.2566 30.4478 32.2148 30.4219 31.1719C30.8386 31.1719 31.2552 31.1719 31.6719 31.1719C31.6719 34.9219 31.6719 38.6719 31.6719 42.4219C28.3386 42.4219 25.0052 42.4219 21.6719 42.4219C21.6719 38.6719 21.6719 34.9219 21.6719 31.1719ZM25.4219 31.1719C26.2552 31.1719 27.0886 31.1719 27.9219 31.1719C27.9219 31.5886 27.9219 32.0052 27.9219 32.4219C27.0886 32.4219 26.2552 32.4219 25.4219 32.4219C25.4219 32.0052 25.4219 31.5886 25.4219 31.1719ZM16.6719 49.9219C17.5052 49.9219 18.3386 49.9219 19.1719 49.9219C19.1459 50.9648 19.1719 52.0066 19.25 53.0469C19.3281 53.3333 19.5105 53.5156 19.7969 53.5938C25.4216 53.6719 31.0466 53.698 36.6719 53.6719C36.6719 61.5886 36.6719 69.5052 36.6719 77.4219C30.4217 77.448 24.1717 77.4219 17.9219 77.3438C17.2188 77.2656 16.8281 76.875 16.75 76.1719C16.6719 67.422 16.6458 58.672 16.6719 49.9219ZM21.6719 49.9219C26.6719 49.9219 31.6719 49.9219 36.6719 49.9219C36.6719 50.3386 36.6719 50.7552 36.6719 51.1719C31.6719 51.1719 26.6719 51.1719 21.6719 51.1719C21.6719 50.7552 21.6719 50.3386 21.6719 49.9219ZM39.1719 49.9219C45.8386 49.9219 52.5052 49.9219 59.1719 49.9219C59.1719 50.3386 59.1719 50.7552 59.1719 51.1719C52.5052 51.1719 45.8386 51.1719 39.1719 51.1719C39.1719 50.7552 39.1719 50.3386 39.1719 49.9219ZM61.6719 49.9219C62.5052 49.9219 63.3386 49.9219 64.1719 49.9219C64.198 58.672 64.1719 67.422 64.0938 76.1719C64.0156 76.875 63.625 77.2656 62.9219 77.3438C55.0053 77.4219 47.0888 77.448 39.1719 77.4219C39.1719 69.5052 39.1719 61.5886 39.1719 53.6719C46.4638 53.698 53.7555 53.6719 61.0469 53.5938C61.3333 53.5156 61.5156 53.3333 61.5938 53.0469C61.6719 52.0066 61.6978 50.9648 61.6719 49.9219Z" fill="white"/>
</g>
<defs>
<clipPath id="clip0_232_29">
<rect width="80" height="80" fill="white" transform="translate(0.5)"/>
</clipPath>
</defs>
</svg>
