<svg width="81" height="80" viewBox="0 0 81 80" fill="none" xmlns="http://www.w3.org/2000/svg">
<g clip-path="url(#clip0_232_36)">
<path opacity="0.957" fill-rule="evenodd" clip-rule="evenodd" d="M11.3594 -0.078125C30.7344 -0.078125 50.1094 -0.078125 69.4844 -0.078125C70.94 0.414147 71.9036 1.40373 72.375 2.89062C72.4792 27.5781 72.4792 52.2656 72.375 76.9531C71.9036 78.44 70.94 79.4295 69.4844 79.9219C50.1094 79.9219 30.7344 79.9219 11.3594 79.9219C9.90377 79.4295 8.94022 78.44 8.46875 76.9531C8.36458 52.2656 8.36458 27.5781 8.46875 2.89062C8.94022 1.40373 9.90377 0.414147 11.3594 -0.078125ZM11.8281 2.73438C30.8906 2.70833 49.9531 2.73438 69.0156 2.8125C69.2577 3.00219 69.4398 3.23656 69.5625 3.51562C69.6406 8.51536 69.6667 13.5154 69.6406 18.5156C50.1614 18.5156 30.6823 18.5156 11.2031 18.5156C11.1771 13.5154 11.2031 8.51536 11.2813 3.51562C11.4371 3.23077 11.6194 2.97036 11.8281 2.73438ZM11.2031 21.3281C30.6823 21.3281 50.1614 21.3281 69.6406 21.3281C69.6406 37.2656 69.6406 53.2031 69.6406 69.1406C50.1614 69.1406 30.6823 69.1406 11.2031 69.1406C11.2031 53.2031 11.2031 37.2656 11.2031 21.3281ZM39.3281 26.6406C48.6294 26.7178 54.9055 31.0928 58.1563 39.7656C60.2258 47.6639 58.2206 54.3045 52.1406 59.6875C45.6583 64.4808 38.7833 65.1058 31.5156 61.5625C24.8338 57.5767 21.6306 51.6652 21.9063 43.8281C22.6008 37.4611 25.6477 32.5912 31.0469 29.2188C33.6398 27.7514 36.4002 26.892 39.3281 26.6406ZM39.7969 31.9531C44.7428 31.978 48.6491 33.9831 51.5156 37.9688C47.6078 40.3459 46.2797 43.7573 47.5313 48.2031C48.3203 50.138 49.6484 51.5703 51.5156 52.5C47.6272 57.7234 42.523 59.4944 36.2031 57.8125C30.5273 55.5548 27.5066 51.3622 27.1406 45.2344C27.4333 39.6184 30.0895 35.582 35.1094 33.125C36.6313 32.4858 38.1938 32.0952 39.7969 31.9531ZM52.4531 40.7031C52.6094 40.7031 52.7656 40.7031 52.9219 40.7031C53.7564 43.167 53.8866 45.667 53.3125 48.2031C53.1953 48.8155 52.987 49.3883 52.6875 49.9219C49.8173 48.0203 49.1403 45.5203 50.6563 42.4219C51.1359 41.7073 51.735 41.1345 52.4531 40.7031ZM11.2031 71.9531C30.6823 71.9531 50.1614 71.9531 69.6406 71.9531C69.6666 73.4123 69.6406 74.8708 69.5625 76.3281C69.4398 76.6072 69.2577 76.8416 69.0156 77.0312C49.9531 77.1355 30.8906 77.1355 11.8281 77.0312C11.5861 76.8416 11.4038 76.6072 11.2813 76.3281C11.2032 74.8708 11.1771 73.4123 11.2031 71.9531Z" fill="#5A44F5"/>
<path opacity="0.934" fill-rule="evenodd" clip-rule="evenodd" d="M19.1719 5.23449C23.108 4.92645 25.3475 6.72332 25.8906 10.6251C25.4547 14.2388 23.4234 16.0097 19.7969 15.9376C16.8266 15.4147 15.2119 13.6439 14.9531 10.6251C15.1749 7.8797 16.5811 6.08282 19.1719 5.23449ZM19.6406 8.04699C19.1367 8.31467 18.6939 8.67924 18.3125 9.14074C17.4002 11.0427 17.947 12.3708 19.9531 13.1251C21.7331 13.2205 22.7748 12.3872 23.0781 10.6251C22.7145 8.72523 21.5686 7.86585 19.6406 8.04699Z" fill="#5A44F5"/>
<path opacity="0.934" fill-rule="evenodd" clip-rule="evenodd" d="M41.8281 5.23427C45.7283 4.91643 47.9678 6.68727 48.5469 10.5468C48.1469 14.2025 46.1156 15.9994 42.4531 15.9374C39.4937 15.3618 37.8792 13.5649 37.6094 10.5468C37.8677 7.84277 39.2739 6.07193 41.8281 5.23427ZM42.2969 8.04677C41.793 8.31445 41.3502 8.67902 40.9688 9.14052C40.1155 11.0619 40.6623 12.39 42.6094 13.1249C44.4223 13.2139 45.4639 12.3545 45.7344 10.5468C45.3319 8.68545 44.1861 7.8521 42.2969 8.04677Z" fill="#5A44F5"/>
<path opacity="0.921" fill-rule="evenodd" clip-rule="evenodd" d="M29.4844 6.48438C31.1633 6.41738 32.8301 6.49551 34.4844 6.71876C35.0746 7.17358 35.2569 7.77254 35.0313 8.51563C34.9011 8.85418 34.6668 9.08855 34.3282 9.21876C32.6094 9.32293 30.8907 9.32293 29.1719 9.21876C28.4446 8.76616 28.2102 8.11511 28.4688 7.26563C28.7508 6.90224 29.0894 6.64183 29.4844 6.48438Z" fill="#5A44F5"/>
<path opacity="0.912" fill-rule="evenodd" clip-rule="evenodd" d="M52.1406 6.4843C53.4039 6.42163 54.6539 6.49975 55.8906 6.71868C56.7373 7.60461 56.6851 8.43794 55.7344 9.21868C54.4323 9.32285 53.1301 9.32285 51.8281 9.21868C51.1011 8.75897 50.8667 8.10793 51.125 7.26555C51.407 6.90216 51.7456 6.64175 52.1406 6.4843Z" fill="#5A44F5"/>
<path opacity="0.917" fill-rule="evenodd" clip-rule="evenodd" d="M61.5156 6.48434C62.6106 6.45836 63.7044 6.4844 64.7969 6.56247C65.7255 7.00459 66.0119 7.70772 65.6563 8.67184C65.4666 8.91384 65.2322 9.09614 64.9531 9.21872C63.5828 9.36559 62.2288 9.31351 60.8906 9.06247C60.4503 8.54092 60.3202 7.94197 60.5 7.26559C60.7505 6.86948 61.0889 6.60906 61.5156 6.48434Z" fill="#5A44F5"/>
<path opacity="0.922" fill-rule="evenodd" clip-rule="evenodd" d="M29.4844 11.7969C31.1633 11.7299 32.8301 11.808 34.4844 12.0313C35.0746 12.4929 35.2568 13.0919 35.0313 13.8281C34.9011 14.1667 34.6668 14.4011 34.3282 14.5313C32.6094 14.6354 30.8907 14.6354 29.1719 14.5313C28.4446 14.0787 28.2102 13.4276 28.4688 12.5781C28.7508 12.2147 29.0894 11.9543 29.4844 11.7969Z" fill="#5A44F5"/>
<path opacity="0.915" fill-rule="evenodd" clip-rule="evenodd" d="M52.2968 11.7968C53.2878 11.7709 54.2773 11.7969 55.2656 11.875C56.4176 12.2783 56.7301 13.0335 56.2031 14.1406C56.0468 14.2708 55.8906 14.401 55.7343 14.5312C54.3121 14.6785 52.9059 14.6264 51.5156 14.375C50.7148 13.1672 50.9753 12.3079 52.2968 11.7968Z" fill="#5A44F5"/>
<path opacity="0.917" fill-rule="evenodd" clip-rule="evenodd" d="M61.5156 11.7968C62.5585 11.7709 63.6003 11.7969 64.6406 11.875C65.6962 12.2283 66.0348 12.9315 65.6562 13.9843C65.4738 14.1666 65.2917 14.3489 65.1093 14.5312C63.6871 14.6785 62.2809 14.6264 60.8906 14.375C60.4331 13.866 60.3028 13.2671 60.4999 12.5781C60.782 12.2147 61.1206 11.9543 61.5156 11.7968Z" fill="#5A44F5"/>
<path opacity="0.938" fill-rule="evenodd" clip-rule="evenodd" d="M39.4843 29.1406C46.7461 29.1364 51.9804 32.3655 55.1875 38.8281C57.8184 46.0906 56.334 52.3666 50.7343 57.6563C44.8403 62.0083 38.6425 62.477 32.1406 59.0625C25.5312 54.5502 23.1614 48.3783 25.0312 40.5469C27.4903 33.7373 32.3079 29.9352 39.4843 29.1406ZM39.7968 31.9531C38.1937 32.0952 36.6312 32.4858 35.1093 33.125C30.0895 35.582 27.4333 39.6184 27.1406 45.2344C27.5065 51.3622 30.5273 55.5548 36.2031 57.8125C42.5229 59.4944 47.6272 57.7234 51.5156 52.5C49.6484 51.5703 48.3203 50.138 47.5312 48.2031C46.2797 43.7573 47.6078 40.3459 51.5156 37.9688C48.649 33.9831 44.7428 31.978 39.7968 31.9531ZM52.4531 40.7031C51.735 41.1345 51.1359 41.7073 50.6562 42.4219C49.1403 45.5203 49.8173 48.0203 52.6875 49.9219C52.987 49.3883 53.1953 48.8155 53.3125 48.2031C53.8865 45.667 53.7564 43.167 52.9218 40.7031C52.7656 40.7031 52.6093 40.7031 52.4531 40.7031Z" fill="#5A44F5"/>
<path opacity="0.926" fill-rule="evenodd" clip-rule="evenodd" d="M39.9531 34.4531C41.6987 34.5602 42.1936 35.3934 41.4375 36.9531C40.0605 37.2692 38.6803 37.6078 37.2969 37.9688C35.3958 38.8281 34.0156 40.2083 33.1562 42.1094C32.743 43.4444 32.4305 44.7986 32.2188 46.1719C30.7925 47.0344 29.9331 46.6438 29.6406 45C30.3303 38.7638 33.7678 35.2481 39.9531 34.4531Z" fill="#5A44F5"/>
</g>
<defs>
<clipPath id="clip0_232_36">
<rect width="80" height="80" fill="white" transform="translate(0.5)"/>
</clipPath>
</defs>
</svg>
