<svg width="81" height="80" viewBox="0 0 81 80" fill="none" xmlns="http://www.w3.org/2000/svg">
<path opacity="0.982" fill-rule="evenodd" clip-rule="evenodd" d="M27.9219 2.42188C36.2553 2.39583 44.5888 2.42188 52.9219 2.5C54.1458 2.89063 54.9531 3.69792 55.3438 4.92188C55.4219 9.08822 55.448 13.2549 55.4219 17.4219C57.5052 17.4219 59.5886 17.4219 61.6719 17.4219C61.6719 18.2552 61.6719 19.0886 61.6719 19.9219C48.0259 19.8958 34.3802 19.9219 20.7344 20C21.2636 21.8125 21.55 23.6616 21.5938 25.5469C21.2292 26.2761 20.8645 27.0052 20.5 27.7344C20.4219 29.2959 20.3959 30.8584 20.4219 32.4219C22.5052 32.4219 24.5886 32.4219 26.6719 32.4219C26.6458 30.1297 26.6719 27.838 26.75 25.5469C26.8084 25.4038 26.8866 25.2734 26.9844 25.1563C29.7822 24.9261 32.5947 24.848 35.4219 24.9219C35.4527 24.0028 35.6348 23.1173 35.9688 22.2656C36.305 22.0492 36.6695 21.893 37.0625 21.7969C38.9175 22.1066 40.7664 22.445 42.6094 22.8125C43.1309 23.1017 43.3392 23.5445 43.2344 24.1406C47.1444 24.703 51.0506 25.3019 54.9531 25.9375C58.3286 26.8652 60.5161 29.0006 61.5156 32.3437C65.3173 32.4219 69.1194 32.448 72.9219 32.4219C72.9219 28.2552 72.9219 24.0886 72.9219 19.9219C69.9531 19.9219 66.9844 19.9219 64.0156 19.9219C64.0156 19.0886 64.0156 18.2552 64.0156 17.4219C67.6097 17.3958 71.2034 17.4219 74.7969 17.5C75.0833 17.5781 75.2656 17.7605 75.3438 18.0469C75.448 23.4636 75.448 28.8802 75.3438 34.2969C75.2656 34.5833 75.0833 34.7656 74.7969 34.8437C73.5989 34.8958 72.4011 34.948 71.2031 35C72.2405 35.2711 73.1519 35.7659 73.9375 36.4844C74.1692 36.9847 74.2214 37.5056 74.0938 38.0469C72.742 39.5287 71.3619 40.9872 69.9531 42.4219C70.0742 42.7305 70.2827 42.8608 70.5781 42.8125C71.9369 41.4014 73.3431 40.0473 74.7969 38.75C75.8322 38.4736 76.5875 38.812 77.0625 39.7656C77.4102 40.3564 77.6705 40.9814 77.8438 41.6406C78.3798 44.6145 77.5986 47.1667 75.5 49.2969C75.4219 50.3372 75.3959 51.3789 75.4219 52.4219C76.0491 52.3959 76.6741 52.422 77.2969 52.5C77.5833 52.5781 77.7656 52.7605 77.8438 53.0469C77.948 60.9636 77.948 68.8801 77.8438 76.7969C77.7853 76.94 77.7072 77.0703 77.6094 77.1875C65.2261 77.3694 52.8303 77.4475 40.4219 77.4219C28.0134 77.4475 15.6176 77.3694 3.23438 77.1875C3.1366 77.0703 3.05847 76.94 3 76.7969C2.89583 68.8801 2.89583 60.9636 3 53.0469C3.07813 52.7605 3.26043 52.5781 3.54688 52.5C5.42116 52.4219 7.29616 52.3958 9.17188 52.4219C9.14616 51.9503 9.17219 51.4816 9.25 51.0156C9.77275 49.8119 10.1373 48.5619 10.3438 47.2656C10.3958 45.8594 10.4479 44.4531 10.5 43.0469C10.5781 42.7605 10.7604 42.5781 11.0469 42.5C11.6697 42.422 12.2947 42.3959 12.9219 42.4219C12.9219 39.9219 12.9219 37.4219 12.9219 34.9219C11.2552 34.9219 9.58855 34.9219 7.92188 34.9219C7.92188 39.9219 7.92188 44.9219 7.92188 49.9219C7.08855 49.9219 6.25521 49.9219 5.42188 49.9219C5.34482 39.1798 5.42294 28.4506 5.65625 17.7344C5.7735 17.6366 5.90372 17.5584 6.04688 17.5C12.505 17.4219 18.9633 17.3958 25.4219 17.4219C25.3958 13.2549 25.4219 9.08822 25.5 4.92188C25.7208 4.42794 25.9813 3.95919 26.2813 3.51563C26.7981 3.08924 27.345 2.72464 27.9219 2.42188ZM29.1719 4.92188C36.672 4.89583 44.172 4.92188 51.6719 5C52.1056 5.01027 52.4441 5.19256 52.6875 5.54688C52.9041 6.99472 52.9822 8.45305 52.9219 9.92188C44.5886 9.92188 36.2552 9.92188 27.9219 9.92188C27.8616 8.45305 27.9397 6.99472 28.1563 5.54688C28.4363 5.21438 28.7747 5.00605 29.1719 4.92188ZM27.9219 12.4219C28.7552 12.4219 29.5886 12.4219 30.4219 12.4219C30.4219 14.0885 30.4219 15.7552 30.4219 17.4219C29.5886 17.4219 28.7552 17.4219 27.9219 17.4219C27.9219 15.7552 27.9219 14.0885 27.9219 12.4219ZM32.9219 12.4219C37.9219 12.4219 42.9219 12.4219 47.9219 12.4219C47.9219 14.0885 47.9219 15.7552 47.9219 17.4219C42.9219 17.4219 37.9219 17.4219 32.9219 17.4219C32.9219 15.7552 32.9219 14.0885 32.9219 12.4219ZM50.4219 12.4219C51.2552 12.4219 52.0886 12.4219 52.9219 12.4219C52.9219 14.0885 52.9219 15.7552 52.9219 17.4219C52.0886 17.4219 51.2552 17.4219 50.4219 17.4219C50.4219 15.7552 50.4219 14.0885 50.4219 12.4219ZM7.92188 19.9219C9.48525 19.8959 11.0478 19.9219 12.6094 20C12.0802 21.8125 11.7937 23.6616 11.75 25.5469C12.1146 26.2761 12.4792 27.0052 12.8438 27.7344C12.9218 29.2959 12.9479 30.8584 12.9219 32.4219C11.2552 32.4219 9.58855 32.4219 7.92188 32.4219C7.92188 28.2552 7.92188 24.0886 7.92188 19.9219ZM15.2656 19.9219C16.2031 19.9219 17.1406 19.9219 18.0781 19.9219C18.3702 21.4864 18.6827 23.0489 19.0156 24.6094C18.7203 25.3566 18.3817 26.0856 18 26.7969C17.9219 32.005 17.8958 37.2133 17.9219 42.4219C17.0886 42.4219 16.2552 42.4219 15.4219 42.4219C15.4479 37.2133 15.4219 32.005 15.3438 26.7969C14.9621 26.0856 14.6235 25.3566 14.3281 24.6094C14.6611 23.0489 14.9736 21.4864 15.2656 19.9219ZM38.0781 24.7656C38.8942 24.7713 39.6755 24.9275 40.4219 25.2344C40.0067 27.5691 39.6422 29.9128 39.3281 32.2656C38.5394 32.2122 37.7581 32.1081 36.9844 31.9531C37.3489 29.5573 37.7136 27.1614 38.0781 24.7656ZM42.7656 26.7969C47.0197 27.2975 51.2384 28.0006 55.4219 28.9062C57.5713 30.003 58.7692 31.7478 59.0156 34.1406C53.4953 33.2887 47.9745 32.4294 42.4531 31.5625C42.2847 31.4572 42.1805 31.3009 42.1406 31.0937C42.4002 29.6673 42.6086 28.2352 42.7656 26.7969ZM29.1719 27.4219C31.0989 27.4219 33.0261 27.4219 34.9531 27.4219C34.7408 28.9341 34.5064 30.4444 34.25 31.9531C34.1458 32.5261 34.1458 33.0989 34.25 33.6719C34.3281 33.9583 34.5105 34.1406 34.7969 34.2187C35.4125 34.3994 36.0375 34.5297 36.6719 34.6094C36.6719 40.5469 36.6719 46.4844 36.6719 52.4219C34.1719 52.4219 31.6719 52.4219 29.1719 52.4219C29.1719 51.5886 29.1719 50.7552 29.1719 49.9219C30.0052 49.9219 30.8386 49.9219 31.6719 49.9219C31.6719 49.0886 31.6719 48.2552 31.6719 47.4219C30.8386 47.4219 30.0052 47.4219 29.1719 47.4219C29.1719 46.5886 29.1719 45.7552 29.1719 44.9219C30.0052 44.9219 30.8386 44.9219 31.6719 44.9219C31.6719 44.0886 31.6719 43.2552 31.6719 42.4219C30.8386 42.4219 30.0052 42.4219 29.1719 42.4219C29.1719 41.5886 29.1719 40.7552 29.1719 39.9219C30.0052 39.9219 30.8386 39.9219 31.6719 39.9219C31.6719 39.0886 31.6719 38.2552 31.6719 37.4219C30.8386 37.4219 30.0052 37.4219 29.1719 37.4219C29.1719 34.0886 29.1719 30.7552 29.1719 27.4219ZM41.6719 34.1406C42.4702 34.213 43.2514 34.3692 44.0156 34.6094C43.3063 38.6058 42.6813 42.6161 42.1406 46.6406C41.5898 46.6166 41.147 46.8248 40.8125 47.2656C40.4247 48.9673 40.1383 50.6861 39.9531 52.4219C39.6927 52.4219 39.4323 52.4219 39.1719 52.4219C39.1719 46.6406 39.1719 40.8594 39.1719 35.0781C39.6014 35.0428 40.0181 35.0948 40.4219 35.2344C41.0384 35.0859 41.4552 34.7212 41.6719 34.1406ZM20.4219 34.9219C22.5052 34.9219 24.5886 34.9219 26.6719 34.9219C26.6719 40.7552 26.6719 46.5886 26.6719 52.4219C25.8386 52.4219 25.0052 52.4219 24.1719 52.4219C24.1977 51.9503 24.1716 51.4816 24.0938 51.0156C23.5709 49.8119 23.2064 48.5619 23 47.2656C22.948 45.8594 22.8958 44.4531 22.8438 43.0469C22.7656 42.7605 22.5833 42.5781 22.2969 42.5C21.6741 42.422 21.0491 42.3959 20.4219 42.4219C20.4219 39.9219 20.4219 37.4219 20.4219 34.9219ZM46.6719 34.9219C48.1803 35.1559 49.6906 35.3903 51.2031 35.625C51.2905 35.7383 51.3425 35.8684 51.3594 36.0156C50.7252 39.977 50.0741 43.9355 49.4063 47.8906C47.8253 47.5967 46.2367 47.3102 44.6406 47.0312C45.3263 42.9958 46.0033 38.9594 46.6719 34.9219ZM61.6719 34.9219C63.7038 34.8958 65.735 34.9219 67.7656 35C64.5105 35.7552 62.5052 37.7605 61.75 41.0156C61.698 42.0573 61.6458 43.0989 61.5938 44.1406C61.5428 44.8666 61.3344 45.5436 60.9688 46.1719C58.9114 48.2292 56.8542 50.2864 54.7969 52.3437C54.1217 52.4217 53.4447 52.4478 52.7656 52.4219C53.0078 51.2342 53.0859 50.0362 53 48.8281C52.8025 48.4989 52.5161 48.3427 52.1406 48.3594C52.7239 44.235 53.3748 40.1203 54.0938 36.0156C56.1744 36.397 58.2577 36.7617 60.3438 37.1094C61.4564 36.8142 61.8991 36.085 61.6719 34.9219ZM69.3281 37.4219C69.8003 37.4694 70.2691 37.5475 70.7344 37.6562C69.4583 38.9323 68.1823 40.2083 66.9063 41.4844C66.5938 42.1094 66.5938 42.7344 66.9063 43.3594C67.7656 44.2187 68.625 45.0781 69.4844 45.9375C69.9847 46.1692 70.5056 46.2214 71.0469 46.0937C72.4745 44.8225 73.8547 43.4944 75.1875 42.1094C75.6806 45.2112 74.4567 47.3206 71.5156 48.4375C70.1142 48.6017 68.708 48.7059 67.2969 48.75C66.3091 48.9575 65.4236 49.3742 64.6406 50C63.8594 50.7812 63.0781 51.5625 62.2969 52.3437C61.0989 52.448 59.9011 52.448 58.7031 52.3437C60.4061 50.7453 61.9947 49.0527 63.4688 47.2656C63.7216 46.7081 63.9298 46.1352 64.0938 45.5469C64.1378 44.1358 64.242 42.7295 64.4063 41.3281C65.2067 38.9364 66.8473 37.6344 69.3281 37.4219ZM12.9219 44.9219C15.4219 44.9219 17.9219 44.9219 20.4219 44.9219C20.3959 46.225 20.4219 47.527 20.5 48.8281C20.768 49.7287 21.0805 50.6141 21.4375 51.4844C21.5148 51.7927 21.5409 52.1052 21.5156 52.4219C18.2864 52.4219 15.0573 52.4219 11.8281 52.4219C11.8028 52.1052 11.8288 51.7927 11.9063 51.4844C12.2633 50.6141 12.5758 49.7287 12.8438 48.8281C12.9218 47.527 12.9479 46.225 12.9219 44.9219ZM43.0781 49.6094C45.3756 49.8967 47.6673 50.2353 49.9531 50.625C50.1119 50.7061 50.2159 50.8364 50.2656 51.0156C50.1403 51.4764 50.0881 51.9452 50.1094 52.4219C47.6094 52.4219 45.1094 52.4219 42.6094 52.4219C42.7367 51.4784 42.893 50.5409 43.0781 49.6094ZM72.4531 50.8594C72.6094 50.8594 72.7656 50.8594 72.9219 50.8594C72.9219 51.3802 72.9219 51.9011 72.9219 52.4219C70.6817 52.448 68.442 52.4219 66.2031 52.3437C66.6255 51.872 67.1463 51.5595 67.7656 51.4062C69.1131 51.2295 70.4672 51.1253 71.8281 51.0937C72.0716 51.0609 72.2798 50.9828 72.4531 50.8594ZM5.42188 54.9219C28.7552 54.9219 52.0886 54.9219 75.4219 54.9219C75.4219 61.5886 75.4219 68.2551 75.4219 74.9219C52.0886 74.9219 28.7552 74.9219 5.42188 74.9219C5.42188 69.9219 5.42188 64.9219 5.42188 59.9219C9.58855 59.9219 13.7552 59.9219 17.9219 59.9219C17.8958 62.2141 17.9219 64.5058 18 66.7969C18.0781 67.0833 18.2605 67.2656 18.5469 67.3437C22.2969 67.448 26.0469 67.448 29.7969 67.3437C30.0833 67.2656 30.2656 67.0833 30.3438 66.7969C30.4219 65.3395 30.4478 63.8811 30.4219 62.4219C29.5886 62.4219 28.7552 62.4219 27.9219 62.4219C27.9219 63.2552 27.9219 64.0886 27.9219 64.9219C25.4219 64.9219 22.9219 64.9219 20.4219 64.9219C20.4219 63.2552 20.4219 61.5886 20.4219 59.9219C33.7552 59.9219 47.0886 59.9219 60.4219 59.9219C60.4219 61.5886 60.4219 63.2552 60.4219 64.9219C57.9219 64.9219 55.4219 64.9219 52.9219 64.9219C52.9219 64.0886 52.9219 63.2552 52.9219 62.4219C52.0886 62.4219 51.2552 62.4219 50.4219 62.4219C50.3959 63.8811 50.4219 65.3395 50.5 66.7969C50.5781 67.0833 50.7605 67.2656 51.0469 67.3437C54.7969 67.448 58.5469 67.448 62.2969 67.3437C62.5833 67.2656 62.7656 67.0833 62.8438 66.7969C62.9219 64.5058 62.948 62.2141 62.9219 59.9219C66.2552 59.9219 69.5886 59.9219 72.9219 59.9219C72.9219 59.0886 72.9219 58.2552 72.9219 57.4219C50.4219 57.4219 27.9219 57.4219 5.42188 57.4219C5.42188 56.5886 5.42188 55.7552 5.42188 54.9219Z" fill="#5A44F5"/>
</svg>
