<svg width="81" height="80" viewBox="0 0 81 80" fill="none" xmlns="http://www.w3.org/2000/svg">
<g clip-path="url(#clip0_232_84)">
<path opacity="0.945" fill-rule="evenodd" clip-rule="evenodd" d="M10.8906 -0.078125C30.5781 -0.078125 50.2656 -0.078125 69.9531 -0.078125C72.6239 0.796098 74.2123 2.61902 74.7188 5.39062C74.7969 23.7239 74.823 42.0572 74.7969 60.3906C76.125 60.3022 77.427 60.4323 78.7031 60.7812C79.4788 61.2694 80.0516 61.9205 80.4219 62.7344C80.4219 64.6094 80.4219 66.4844 80.4219 68.3594C79.6192 71.1919 77.7442 72.8064 74.7969 73.2031C74.807 76.6284 73.1923 78.868 69.9531 79.9219C50.2656 79.9219 30.5781 79.9219 10.8906 79.9219C7.65133 78.868 6.03675 76.6284 6.04688 73.2031C3.09961 72.8064 1.22461 71.1919 0.421875 68.3594C0.421875 66.4844 0.421875 64.6094 0.421875 62.7344C0.960686 61.4931 1.89819 60.738 3.23438 60.4688C4.17044 60.3908 5.10794 60.3647 6.04688 60.3906C6.02083 42.0572 6.04688 23.7239 6.125 5.39062C6.63133 2.61902 8.21987 0.796098 10.8906 -0.078125ZM12.2969 2.26562C31.0469 2.23958 49.7969 2.26562 68.5469 2.34375C70.5673 2.59347 71.7914 3.71327 72.2188 5.70312C72.2969 23.9322 72.323 42.1614 72.2969 60.3906C71.3073 60.3906 70.3177 60.3906 69.3281 60.3906C69.3542 44.9217 69.3281 29.453 69.25 13.9844C68.9634 12.187 67.9478 11.0151 66.2031 10.4688C49.0156 10.3646 31.8281 10.3646 14.6406 10.4688C12.8959 11.0151 11.8803 12.187 11.5938 13.9844C11.5156 29.453 11.4896 44.9217 11.5156 60.3906C10.526 60.3906 9.53645 60.3906 8.54688 60.3906C8.52083 42.1614 8.54688 23.9322 8.625 5.70312C9.07939 3.71164 10.3034 2.5658 12.2969 2.26562ZM15.1094 12.8906C21.9844 12.8906 28.8594 12.8906 35.7344 12.8906C35.7344 13.9844 35.7344 15.0781 35.7344 16.1719C33.5463 16.1458 31.3588 16.1719 29.1719 16.25C28.512 16.718 28.3298 17.317 28.625 18.0469C28.8147 18.2889 29.0491 18.4711 29.3281 18.5938C39.6777 18.6202 50.0162 18.6983 60.3438 18.8281C60.448 19.7136 60.448 20.5989 60.3438 21.4844C60.2656 21.5625 60.1875 21.6406 60.1094 21.7188C46.9844 21.823 33.8594 21.823 20.7344 21.7188C20.6562 21.6406 20.5781 21.5625 20.5 21.4844C20.3958 20.5989 20.3958 19.7136 20.5 18.8281C21.9838 18.7394 23.4681 18.6092 24.9531 18.4375C25.4053 17.983 25.5355 17.4361 25.3438 16.7969C25.2656 16.5105 25.0833 16.3281 24.7969 16.25C23.1823 16.1458 21.5677 16.1458 19.9531 16.25C18.2922 17.0194 17.615 18.3214 17.9219 20.1562C17.5636 21.9523 18.1886 23.2544 19.7969 24.0625C26.6628 24.2436 33.5378 24.3217 40.4219 24.2969C47.1406 24.2708 53.8594 24.2448 60.5781 24.2188C61.6872 23.8908 62.4425 23.1877 62.8438 22.1094C62.948 20.8073 62.948 19.5052 62.8438 18.2031C62.5052 17.2395 61.8542 16.5886 60.8906 16.25C55.6305 16.1719 50.37 16.1458 45.1094 16.1719C45.1094 15.0781 45.1094 13.9844 45.1094 12.8906C51.9845 12.8646 58.8595 12.8906 65.7344 12.9688C66.307 13.2294 66.6456 13.6721 66.75 14.2969C66.8542 22.3177 66.8542 30.3386 66.75 38.3594C62.4236 31.8452 56.3558 29.0587 48.5469 30C47.6598 30.15 46.8005 30.3844 45.9688 30.7031C42.2708 29.4531 38.573 29.4531 34.875 30.7031C27.2491 28.573 20.7906 30.448 15.5 36.3281C15.0312 37.0052 14.5625 37.6823 14.0938 38.3594C13.9896 30.3386 13.9896 22.3177 14.0938 14.2969C14.2301 13.668 14.5686 13.1993 15.1094 12.8906ZM38.2344 12.8906C39.6927 12.8906 41.1511 12.8906 42.6094 12.8906C42.6094 13.9844 42.6094 15.0781 42.6094 16.1719C41.1511 16.1719 39.6927 16.1719 38.2344 16.1719C38.2344 15.0781 38.2344 13.9844 38.2344 12.8906ZM27.9219 32.2656C28.9397 32.1945 29.9292 32.2727 30.8906 32.5C29.243 33.5852 27.7847 34.8873 26.5156 36.4062C20.0855 38.7175 17.2989 43.2748 18.1562 50.0781C19.3523 54.5034 22.1389 57.3941 26.5156 58.75C26.9266 59.3175 27.3953 59.8383 27.9219 60.3125C25.5781 60.4167 23.2344 60.4167 20.8906 60.3125C16.5313 57.2461 14.2396 53.0273 14.0156 47.6562C14.3372 40.9841 17.5142 36.2445 23.5469 33.4375C24.985 32.8959 26.4434 32.5053 27.9219 32.2656ZM39.0156 32.2656C40.0334 32.1945 41.023 32.2727 41.9844 32.5C40.2855 33.5212 38.827 34.8233 37.6094 36.4062C32.1161 38.1498 29.1994 41.8998 28.8594 47.6562C29.2683 53.2717 32.133 56.9697 37.4531 58.75C37.9739 59.2708 38.4948 59.7917 39.0156 60.3125C36.6719 60.4167 34.3281 60.4167 31.9844 60.3125C27.0584 56.8398 24.7928 52.0742 25.1875 46.0156C26.5622 38.1566 31.1716 33.5733 39.0156 32.2656ZM50.1094 32.2656C58.2448 32.2036 63.6355 36.0058 66.2812 43.6719C67.6366 49.6855 66.1002 54.8156 61.6719 59.0625C61.1266 59.5173 60.5538 59.9341 59.9531 60.3125C54.2761 60.4167 48.5989 60.4167 42.9219 60.3125C36.7122 55.5567 34.8113 49.4369 37.2188 41.9531C39.7209 36.3161 44.0178 33.0869 50.1094 32.2656ZM34.9531 54.6094C33.3767 53.4186 32.3091 51.8561 31.75 49.9219C30.9105 46.0864 32.0042 42.9092 35.0312 40.3906C33.2948 45.1072 33.2688 49.8469 34.9531 54.6094ZM23.7031 40.5469C23.8186 40.5264 23.9228 40.5525 24.0156 40.625C22.1694 45.3392 22.1434 50.0528 23.9375 54.7656C19.8528 50.9334 19.332 46.6627 22.375 41.9531C22.8497 41.5048 23.2923 41.0361 23.7031 40.5469ZM14.0156 56.7969C14.7962 58.0747 15.7337 59.2466 16.8281 60.3125C15.8921 60.3905 14.9546 60.4166 14.0156 60.3906C14.0156 59.1927 14.0156 57.9948 14.0156 56.7969ZM66.6719 56.7969C66.8269 57.9659 66.8789 59.1637 66.8281 60.3906C65.8892 60.4166 64.9517 60.3905 64.0156 60.3125C65.1187 59.2898 66.0042 58.118 66.6719 56.7969ZM3.54688 62.8906C28.1303 62.8645 52.7136 62.8906 77.2969 62.9688C77.7034 63.1148 77.9378 63.4012 78 63.8281C78.1605 65.3598 78.0562 66.8703 77.6875 68.3594C77.2191 69.5569 76.3597 70.312 75.1094 70.625C72.5058 70.7031 69.9016 70.7292 67.2969 70.7031C68.1555 65.9889 66.2283 64.1139 61.5156 65.0781C56.9191 64.2059 54.9919 66.0809 55.7344 70.7031C44.4842 70.677 33.2342 70.7031 21.9844 70.7812C20.7994 71.5047 20.7472 72.2859 21.8281 73.125C38.6509 73.2031 55.4739 73.2292 72.2969 73.2031C72.2391 75.6825 70.9891 77.1148 68.5469 77.5C49.7969 77.6042 31.0469 77.6042 12.2969 77.5C9.85472 77.1148 8.60472 75.6825 8.54688 73.2031C11.5161 73.2292 14.4848 73.2031 17.4531 73.125C17.7395 73.0469 17.9219 72.8645 18 72.5781C18.2694 71.7608 18.035 71.1617 17.2969 70.7812C13.4427 70.7292 9.58855 70.677 5.73438 70.625C4.36917 70.2494 3.45772 69.39 3 68.0469C2.77636 66.647 2.72428 65.2408 2.84375 63.8281C2.93727 63.3978 3.17164 63.0853 3.54688 62.8906ZM58.3906 67.5781C60.5261 67.5781 62.6614 67.5781 64.7969 67.5781C64.7969 68.6198 64.7969 69.6614 64.7969 70.7031C62.6094 70.7031 60.4219 70.7031 58.2344 70.7031C58.1886 69.6477 58.2406 68.6059 58.3906 67.5781Z" fill="#5A44F5"/>
<path opacity="0.926" fill-rule="evenodd" clip-rule="evenodd" d="M49.6406 36.172C53.0031 35.7573 55.998 36.5905 58.625 38.672C58.9828 40.1234 58.4359 40.7223 56.9844 40.4688C53.6494 38.2552 50.2119 38.099 46.6719 40.0001C42.9945 42.6462 41.7706 46.1618 43 50.5469C45.1041 55.3101 48.7237 57.2112 53.8594 56.2501C58.5601 54.5321 60.7216 51.1727 60.3437 46.1719C60.1239 45.2788 59.8895 44.3934 59.6406 43.5157C59.8253 42.2809 60.5023 41.9424 61.6719 42.5001C62.1617 43.2913 62.5003 44.1507 62.6875 45.0782C63.5817 50.8151 61.5244 55.112 56.5156 57.9688C51.1555 60.1246 46.4939 59.109 42.5312 54.9219C39.2225 50.2596 39.1183 45.5201 42.2187 40.7032C44.152 38.292 46.6259 36.7815 49.6406 36.172Z" fill="#5A44F5"/>
</g>
<defs>
<clipPath id="clip0_232_84">
<rect width="80" height="80" fill="white" transform="translate(0.5)"/>
</clipPath>
</defs>
</svg>
