<svg width="81" height="80" viewBox="0 0 81 80" fill="none" xmlns="http://www.w3.org/2000/svg">
<path opacity="0.99" fill-rule="evenodd" clip-rule="evenodd" d="M7.76563 2.42188C29.5366 2.39583 51.3073 2.42188 73.0781 2.5C75.6042 3.15105 77.1927 4.73958 77.8438 7.26563C77.948 24.6094 77.948 41.9531 77.8438 59.2969C77.6048 59.7681 77.2142 59.9764 76.6719 59.9219C76.1295 59.9764 75.7389 59.7681 75.5 59.2969C75.448 42.4219 75.3958 25.5469 75.3438 8.67188C75.0573 6.51042 73.8333 5.28646 71.6719 5C50.5214 4.84533 29.3756 4.89741 8.23438 5.15625C6.56193 5.7351 5.65046 6.90697 5.5 8.67188C5.39583 29.5052 5.39583 50.3386 5.5 71.1719C5.78646 73.3333 7.01043 74.5573 9.17188 74.8438C30.0052 74.948 50.8386 74.948 71.6719 74.8438C73.8333 74.5573 75.0573 73.3333 75.3438 71.1719C75.3958 69.7136 75.448 68.2552 75.5 66.7969C75.7389 66.3256 76.1295 66.1173 76.6719 66.1719C77.2142 66.1173 77.6048 66.3256 77.8438 66.7969C77.948 68.7239 77.948 70.6511 77.8438 72.5781C77.1927 75.1042 75.6042 76.6927 73.0781 77.3438C51.3073 77.448 29.5364 77.448 7.76563 77.3438C5.23958 76.6927 3.65105 75.1042 3 72.5781C2.89583 50.8073 2.89583 29.0364 3 7.26563C3.67952 4.73728 5.26807 3.12269 7.76563 2.42188Z" fill="white"/>
<path opacity="0.94" fill-rule="evenodd" clip-rule="evenodd" d="M22.1406 11.172C28.1762 10.6356 32.8376 12.8752 36.125 17.8907C38.2214 21.9379 38.4817 26.1045 36.9062 30.3907C33.625 36.8102 28.3906 39.4926 21.2031 38.4376C15.21 36.8715 11.6423 33.0434 10.5 26.9532C9.88613 20.9163 12.0997 16.2549 17.1406 12.9688C18.7237 12.0802 20.3904 11.4813 22.1406 11.172ZM22.4531 13.8282C17.2034 15.0678 14.0784 18.3491 13.0781 23.672C14.0691 23.646 15.0586 23.672 16.0469 23.7501C16.5181 23.989 16.7264 24.3796 16.6719 24.922C16.7264 25.4643 16.5181 25.8549 16.0469 26.0938C15.0586 26.172 14.0691 26.1979 13.0781 26.172C14.1198 31.6927 17.4011 34.974 22.9219 36.0157C22.8959 35.0248 22.9219 34.0352 23 33.047C23.2389 32.5757 23.6295 32.3674 24.1719 32.422C24.7142 32.3674 25.1048 32.5757 25.3437 33.047C25.4219 34.0352 25.4478 35.0248 25.4219 36.0157C30.9426 34.974 34.2239 31.6927 35.2656 26.172C34.2747 26.1979 33.2851 26.172 32.2969 26.0938C31.8256 25.8549 31.6173 25.4643 31.6719 24.922C31.6173 24.3796 31.8256 23.989 32.2969 23.7501C33.2851 23.672 34.2747 23.646 35.2656 23.672C34.2239 18.1512 30.9426 14.8699 25.4219 13.8282C25.4478 14.8192 25.4219 15.8087 25.3437 16.797C25.1048 17.2682 24.7142 17.4765 24.1719 17.422C23.6295 17.4765 23.2389 17.2682 23 16.797C22.9219 15.8087 22.8959 14.8192 22.9219 13.8282C22.7656 13.8282 22.6094 13.8282 22.4531 13.8282Z" fill="white"/>
<path opacity="0.939" fill-rule="evenodd" clip-rule="evenodd" d="M54.4844 11.1719C61.3609 10.5852 66.335 13.3456 69.4062 19.4531C71.6962 25.9451 70.2639 31.44 65.1094 35.9375C61.0826 38.7786 56.7076 39.4556 51.9844 37.9687C45.0344 34.8784 42.0915 29.5398 43.1562 21.9531C44.7336 16.0264 48.5095 12.4326 54.4844 11.1719ZM54.9531 13.8281C49.7034 15.0677 46.5784 18.349 45.5781 23.6719C46.569 23.6459 47.5586 23.6719 48.5469 23.75C49.0181 23.9889 49.2264 24.3795 49.1719 24.9219C49.2264 25.4642 49.0181 25.8548 48.5469 26.0937C47.5586 26.1719 46.569 26.1978 45.5781 26.1719C46.6198 31.6926 49.9011 34.9739 55.4219 36.0156C55.3959 35.0247 55.4219 34.0351 55.5 33.0469C55.7389 32.5756 56.1295 32.3673 56.6719 32.4219C57.2142 32.3673 57.6048 32.5756 57.8437 33.0469C57.9219 34.0351 57.9478 35.0247 57.9219 36.0156C63.4426 34.9739 66.7239 31.6926 67.7656 26.1719C66.7747 26.1978 65.7851 26.1719 64.7969 26.0937C64.3256 25.8548 64.1173 25.4642 64.1719 24.9219C64.1173 24.3795 64.3256 23.9889 64.7969 23.75C65.7851 23.6719 66.7747 23.6459 67.7656 23.6719C66.7239 18.1511 63.4426 14.8698 57.9219 13.8281C57.9478 14.8191 57.9219 15.8086 57.8437 16.7969C57.6048 17.2681 57.2142 17.4764 56.6719 17.4219C56.1295 17.4764 55.7389 17.2681 55.5 16.7969C55.4219 15.8086 55.3959 14.8191 55.4219 13.8281C55.2656 13.8281 55.1094 13.8281 54.9531 13.8281Z" fill="white"/>
<path opacity="0.943" fill-rule="evenodd" clip-rule="evenodd" d="M22.4532 43.672C27.7004 43.2081 31.4243 45.3435 33.625 50.0782C35.1358 55.0771 33.8077 59.1135 29.6407 62.1876C26.76 63.7913 23.7391 64.1038 20.5782 63.1251C15.7719 60.8845 13.6625 57.1084 14.25 51.797C15.312 47.3756 18.0463 44.6673 22.4532 43.672ZM22.7657 46.3282C22.895 47.2896 22.9732 48.2793 23 49.297C23.2389 49.7682 23.6296 49.9765 24.1719 49.922C24.551 49.937 24.8896 49.8329 25.1875 49.6095C25.3844 48.5323 25.4885 47.4385 25.5 46.3282C28.6511 47.1876 30.6563 49.1927 31.5157 52.3438C30.5261 52.3959 29.5364 52.4481 28.5469 52.5001C28.0757 52.739 27.8674 53.1296 27.9219 53.672C27.9069 54.051 28.011 54.3896 28.2344 54.6876C29.3116 54.8845 30.4054 54.9885 31.5157 55.0001C30.6563 58.1512 28.6511 60.1563 25.5 61.0157C25.448 60.0262 25.3958 59.0365 25.3438 58.047C25.1049 57.5757 24.7143 57.3674 24.1719 57.422C23.7929 57.407 23.4543 57.511 23.1563 57.7345C22.9594 58.8116 22.8554 59.9054 22.8438 61.0157C19.6927 60.1563 17.6875 58.1512 16.8282 55.0001C17.8177 54.9481 18.8074 54.8959 19.7969 54.8438C20.2682 54.6049 20.4764 54.2143 20.4219 53.672C20.4369 53.2929 20.3329 52.9543 20.1094 52.6563C19.0322 52.4595 17.9385 52.3554 16.8282 52.3438C17.69 49.2165 19.6691 47.2113 22.7657 46.3282Z" fill="white"/>
<path opacity="0.928" fill-rule="evenodd" clip-rule="evenodd" d="M45.2656 47.4219C48.8327 46.9605 51.3067 48.3668 52.6875 51.6407C53.5809 55.4527 52.2528 58.135 48.7031 59.6875C44.8911 60.581 42.2088 59.2529 40.6563 55.7032C39.785 51.559 41.3214 48.7985 45.2656 47.4219ZM45.7344 50.0782C43.6655 50.881 42.8061 52.3915 43.1563 54.6094C43.9209 56.6979 45.4053 57.5572 47.6094 57.1875C49.6978 56.4229 50.5572 54.9385 50.1875 52.7344C49.4209 50.6707 47.9366 49.7852 45.7344 50.0782Z" fill="white"/>
<path opacity="0.928" fill-rule="evenodd" clip-rule="evenodd" d="M62.7656 47.4219C66.3327 46.9605 68.8067 48.3668 70.1875 51.6407C71.0809 55.4527 69.7528 58.135 66.2031 59.6875C62.3911 60.581 59.7088 59.2529 58.1563 55.7032C57.285 51.559 58.8214 48.7985 62.7656 47.4219ZM63.2344 50.0782C61.1655 50.881 60.3061 52.3915 60.6563 54.6094C61.4209 56.6979 62.9053 57.5572 65.1094 57.1875C67.1978 56.4229 68.0572 54.9385 67.6875 52.7344C66.9209 50.6707 65.4366 49.7852 63.2344 50.0782Z" fill="white"/>
<path opacity="0.933" fill-rule="evenodd" clip-rule="evenodd" d="M35.5781 64.922C37.9011 64.5332 39.4897 65.4185 40.3438 67.5782C40.8097 69.9026 39.9503 71.4912 37.7656 72.3438C35.4413 72.8098 33.8527 71.9504 33 69.7657C32.5541 67.4271 33.4134 65.8124 35.5781 64.922ZM36.2031 67.5782C35.9463 67.7057 35.7641 67.9142 35.6563 68.2032C35.5192 69.6078 36.1181 70.0504 37.4531 69.5313C38.0808 68.2082 37.6641 67.5571 36.2031 67.5782Z" fill="white"/>
<path opacity="0.932" fill-rule="evenodd" clip-rule="evenodd" d="M45.5781 64.922C47.9011 64.5332 49.4897 65.4185 50.3438 67.5782C50.8097 69.9026 49.9503 71.4912 47.7656 72.3438C45.4413 72.8098 43.8527 71.9504 43 69.7657C42.5541 67.4271 43.4134 65.8124 45.5781 64.922ZM46.2031 67.5782C45.9463 67.7057 45.7641 67.9142 45.6563 68.2032C45.5192 69.6078 46.1181 70.0504 47.4531 69.5313C48.0808 68.2082 47.6641 67.5571 46.2031 67.5782Z" fill="white"/>
<path opacity="0.933" fill-rule="evenodd" clip-rule="evenodd" d="M55.5781 64.922C57.9011 64.5332 59.4897 65.4185 60.3438 67.5782C60.8097 69.9026 59.9503 71.4912 57.7656 72.3438C55.4413 72.8098 53.8527 71.9504 53 69.7657C52.5541 67.4271 53.4134 65.8124 55.5781 64.922ZM56.2031 67.5782C55.9463 67.7057 55.7641 67.9142 55.6563 68.2032C55.5192 69.6078 56.1181 70.0504 57.4531 69.5313C58.0808 68.2082 57.6641 67.5571 56.2031 67.5782Z" fill="white"/>
<path opacity="0.932" fill-rule="evenodd" clip-rule="evenodd" d="M65.5781 64.922C67.9011 64.5332 69.4897 65.4185 70.3438 67.5782C70.8097 69.9026 69.9503 71.4912 67.7656 72.3438C65.4413 72.8098 63.8527 71.9504 63 69.7657C62.5541 67.4271 63.4134 65.8124 65.5781 64.922ZM66.2031 67.5782C65.9463 67.7057 65.7641 67.9142 65.6563 68.2032C65.5192 69.6078 66.1181 70.0504 67.4531 69.5313C68.0808 68.2082 67.6641 67.5571 66.2031 67.5782Z" fill="white"/>
</svg>
