<svg width="81" height="80" viewBox="0 0 81 80" fill="none" xmlns="http://www.w3.org/2000/svg">
<g clip-path="url(#clip0_232_63)">
<path opacity="0.938" fill-rule="evenodd" clip-rule="evenodd" d="M15.7344 2.73438C32.1928 2.70833 48.6511 2.73438 65.1094 2.8125C66.8717 3.27271 67.9394 4.39249 68.3125 6.17188C68.4167 28.0469 68.4167 49.9219 68.3125 71.7969C68.1823 72.1355 67.948 72.3698 67.6094 72.5C66.7255 72.578 65.84 72.6041 64.9531 72.5781C64.9791 73.9333 64.9531 75.2875 64.875 76.6406C64.7448 76.7708 64.6145 76.9011 64.4844 77.0312C62.4011 77.1355 60.3177 77.1355 58.2344 77.0312C58.1042 76.9011 57.9739 76.7708 57.8438 76.6406C57.6186 75.3034 57.5405 73.9494 57.6094 72.5781C46.1511 72.5781 34.6927 72.5781 23.2344 72.5781C23.3033 73.9494 23.2252 75.3034 23 76.6406C22.8698 76.7708 22.7395 76.9011 22.6094 77.0312C20.5261 77.1355 18.4427 77.1355 16.3594 77.0312C16.2292 76.9011 16.099 76.7708 15.9688 76.6406C15.8907 75.2875 15.8646 73.9333 15.8906 72.5781C15.0037 72.6041 14.1183 72.578 13.2344 72.5C12.8958 72.3698 12.6615 72.1355 12.5313 71.7969C12.4271 49.9219 12.4271 28.0469 12.5313 6.17188C12.9333 4.39006 14.001 3.24424 15.7344 2.73438ZM16.2031 5.07813C23.9114 5.07813 31.6198 5.07813 39.3281 5.07813C39.3281 8.82813 39.3281 12.5781 39.3281 16.3281C31.1511 16.3281 22.9739 16.3281 14.7969 16.3281C14.7708 13.0465 14.7969 9.76522 14.875 6.48438C15.1428 5.82653 15.5855 5.35778 16.2031 5.07813ZM41.5156 5.07813C49.3895 5.00216 57.2541 5.08028 65.1094 5.3125C65.5166 5.61538 65.803 6.006 65.9688 6.48438C66.0469 9.76522 66.073 13.0465 66.0469 16.3281C57.8698 16.3281 49.6927 16.3281 41.5156 16.3281C41.5156 12.5781 41.5156 8.82813 41.5156 5.07813ZM14.7969 18.6719C31.8802 18.6719 48.9636 18.6719 66.0469 18.6719C66.0469 35.8594 66.0469 53.0469 66.0469 70.2344C48.9636 70.2344 31.8802 70.2344 14.7969 70.2344C14.7969 53.0469 14.7969 35.8594 14.7969 18.6719ZM38.7031 28.3594C46.5702 28.0841 52.1431 31.4955 55.4219 38.5938C57.7567 45.6083 56.2464 51.65 50.8906 56.7188C44.9853 61.2205 38.7353 61.7414 32.1406 58.2812C25.6847 53.9173 23.2628 47.9017 24.875 40.2344C27.0758 33.4475 31.6852 29.4891 38.7031 28.3594ZM39.1719 33.6719C44.9936 33.535 48.8738 36.1913 50.8125 41.6406C51.8583 46.9455 50.1136 51.0341 45.5781 53.9062C41.1633 56.0086 37.0488 55.5398 33.2344 52.5C29.045 48.0655 28.5502 43.2478 31.75 38.0469C33.698 35.6802 36.172 34.2219 39.1719 33.6719ZM18.2344 72.5781C19.1198 72.5781 20.0052 72.5781 20.8906 72.5781C20.8906 73.3073 20.8906 74.0364 20.8906 74.7656C20.0052 74.7656 19.1198 74.7656 18.2344 74.7656C18.2344 74.0364 18.2344 73.3073 18.2344 72.5781ZM59.9531 72.5781C60.8386 72.5781 61.7239 72.5781 62.6094 72.5781C62.6094 73.3073 62.6094 74.0364 62.6094 74.7656C61.7239 74.7656 60.8386 74.7656 59.9531 74.7656C59.9531 74.0364 59.9531 73.3073 59.9531 72.5781Z" fill="white"/>
<path opacity="0.917" fill-rule="evenodd" clip-rule="evenodd" d="M48.0781 6.7968C51.3553 6.76652 52.8917 8.38112 52.6875 11.6406C51.9831 13.8028 50.4988 14.7663 48.2344 14.5312C45.6039 13.8243 44.5883 12.1316 45.1875 9.45305C45.6845 8.04391 46.6481 7.15849 48.0781 6.7968ZM48.5469 9.14055C47.1285 9.8934 46.9722 10.8569 48.0781 12.0312C48.9333 12.4434 49.6364 12.2611 50.1875 11.4843C50.6477 10.0104 50.1008 9.2292 48.5469 9.14055Z" fill="white"/>
<path opacity="0.923" fill-rule="evenodd" clip-rule="evenodd" d="M58.0782 6.79688C61.8355 7.01945 63.2157 8.94653 62.2188 12.5781C60.4849 14.86 58.4275 15.1986 56.0469 13.5938C54.2921 11.3109 54.5005 9.22758 56.6719 7.34375C57.1518 7.1413 57.6205 6.95902 58.0782 6.79688ZM58.3907 9.14062C57.0314 9.91042 56.8752 10.874 57.9219 12.0312C59.2627 12.481 60.0439 12.0123 60.2657 10.625C60.1032 9.57705 59.4782 9.08225 58.3907 9.14062Z" fill="white"/>
<path opacity="0.932" fill-rule="evenodd" clip-rule="evenodd" d="M18.8594 7.26563C24.2763 7.23958 29.693 7.26563 35.1094 7.34375C35.448 7.47396 35.6824 7.70833 35.8125 8.04688C35.9168 9.81771 35.9168 11.5885 35.8125 13.3594C35.6824 13.6979 35.448 13.9323 35.1094 14.0625C29.7449 14.1667 24.3802 14.1667 19.0157 14.0625C18.7366 13.9399 18.5022 13.7576 18.3125 13.5156C18.2083 11.6406 18.2083 9.76563 18.3125 7.89063C18.4847 7.66422 18.6671 7.45589 18.8594 7.26563ZM20.5782 9.60938C20.5782 10.3385 20.5782 11.0677 20.5782 11.7969C24.9011 11.7969 29.2239 11.7969 33.5469 11.7969C33.5469 11.0677 33.5469 10.3385 33.5469 9.60938C29.2239 9.60938 24.9011 9.60938 20.5782 9.60938Z" fill="white"/>
<path opacity="0.911" fill-rule="evenodd" clip-rule="evenodd" d="M44.7968 38.3594C45.9967 38.4403 46.4393 39.0653 46.125 40.2344C45.566 41.1778 45.4618 42.1675 45.8125 43.2031C47.179 45.3939 47.2832 47.6336 46.125 49.9219C45.0728 50.8425 44.3176 50.6342 43.8593 49.2969C44.5973 48.0372 44.7275 46.7352 44.25 45.3906C42.8968 43.1452 42.8968 40.9056 44.25 38.6719C44.4534 38.5805 44.6357 38.4764 44.7968 38.3594Z" fill="white"/>
<path opacity="0.913" fill-rule="evenodd" clip-rule="evenodd" d="M35.1094 38.5156C36.1205 38.2475 36.7455 38.6122 36.9844 39.6094C36.2461 40.87 36.1159 42.172 36.5937 43.5156C37.9712 45.7794 37.9452 48.0189 36.5156 50.2344C35.0887 50.7098 34.4898 50.1891 34.7187 48.6719C35.2777 47.7284 35.3819 46.7388 35.0312 45.7031C33.4514 43.2667 33.4775 40.8708 35.1094 38.5156Z" fill="white"/>
<path opacity="0.918" fill-rule="evenodd" clip-rule="evenodd" d="M39.7968 38.5156C41.1762 38.3064 41.7231 38.8792 41.4375 40.2344C40.7828 41.2984 40.7307 42.3922 41.2812 43.5156C42.5575 45.6248 42.6097 47.7601 41.4375 49.9219C40.7525 50.7247 40.0753 50.7247 39.4062 49.9219C39.302 49.5051 39.302 49.0886 39.4062 48.6719C40.0609 47.6078 40.1129 46.514 39.5625 45.3906C38.1506 43.0297 38.2287 40.738 39.7968 38.5156Z" fill="white"/>
</g>
<defs>
<clipPath id="clip0_232_63">
<rect width="80" height="80" fill="white" transform="translate(0.5)"/>
</clipPath>
</defs>
</svg>
