<svg width="81" height="80" viewBox="0 0 81 80" fill="none" xmlns="http://www.w3.org/2000/svg">
<g clip-path="url(#clip0_232_173)">
<path opacity="0.995" fill-rule="evenodd" clip-rule="evenodd" d="M3.85938 -0.078125C28.2344 -0.078125 52.6094 -0.078125 76.9844 -0.078125C77.6977 0.227172 78.3747 0.617797 79.0156 1.09375C79.6273 1.77242 80.0961 2.52762 80.4219 3.35938C80.4219 26.1719 80.4219 48.9844 80.4219 71.7969C79.6159 73.9548 78.0534 75.1008 75.7344 75.2344C75.9867 77.5462 75.0492 79.1088 72.9219 79.9219C70.6302 79.9219 68.3386 79.9219 66.0469 79.9219C63.9195 79.1088 62.982 77.5462 63.2344 75.2344C48.0261 75.2344 32.8177 75.2344 17.6094 75.2344C17.8617 77.5462 16.9242 79.1088 14.7969 79.9219C12.5052 79.9219 10.2135 79.9219 7.92188 79.9219C5.79452 79.1088 4.85702 77.5462 5.10938 75.2344C2.79028 75.1008 1.22778 73.9548 0.421875 71.7969C0.421875 48.9844 0.421875 26.1719 0.421875 3.35938C0.727172 2.64609 1.1178 1.96902 1.59375 1.32812C2.27242 0.716394 3.02762 0.247644 3.85938 -0.078125ZM5.10938 3.04688C28.6511 3.02083 52.1928 3.04688 75.7344 3.125C76.2992 3.22086 76.742 3.50733 77.0625 3.98438C77.2539 4.70083 77.332 5.43 77.2969 6.17188C52.7136 6.17188 28.1302 6.17188 3.54688 6.17188C3.51169 5.43 3.58981 4.70083 3.78125 3.98438C4.12656 3.50505 4.56927 3.19255 5.10938 3.04688ZM3.54688 9.29688C9.79688 9.29688 16.0469 9.29688 22.2969 9.29688C22.332 10.0388 22.2539 10.7679 22.0625 11.4844C21.742 11.9614 21.2992 12.2479 20.7344 12.3438C15.0054 12.4219 9.27628 12.4479 3.54688 12.4219C3.54688 11.3802 3.54688 10.3385 3.54688 9.29688ZM25.4219 9.29688C42.7136 9.29688 60.0052 9.29688 77.2969 9.29688C77.323 29.7136 77.2969 50.1303 77.2188 70.5469C77.0886 71.4062 76.5938 71.9011 75.7344 72.0312C52.1927 72.1355 28.6511 72.1355 5.10938 72.0312C4.25 71.9011 3.7552 71.4062 3.625 70.5469C3.54688 52.2136 3.52083 33.8803 3.54688 15.5469C9.69292 15.5729 15.8388 15.5469 21.9844 15.4688C24.7656 14.362 25.9116 12.3047 25.4219 9.29688ZM8.23438 75.2344C10.3177 75.2344 12.401 75.2344 14.4844 75.2344C14.5516 75.7597 14.3954 76.2023 14.0156 76.5625C13.1468 76.7377 12.2614 76.8158 11.3594 76.7969C10.5781 76.7708 9.79688 76.7448 9.01562 76.7188C8.4078 76.4148 8.14739 75.92 8.23438 75.2344ZM66.3594 75.2344C68.4427 75.2344 70.5261 75.2344 72.6094 75.2344C72.6766 75.7597 72.5203 76.2023 72.1406 76.5625C71.2717 76.7377 70.3864 76.8158 69.4844 76.7969C68.7031 76.7708 67.9219 76.7448 67.1406 76.7188C66.5328 76.4148 66.2723 75.92 66.3594 75.2344Z" fill="#5A44F5"/>
<path opacity="0.903" fill-rule="evenodd" clip-rule="evenodd" d="M39.7969 24.7656C41.5134 24.6333 42.2166 25.4145 41.9063 27.1093C41.4502 27.9726 40.747 28.259 39.7969 27.9687C38.9205 27.4567 38.6341 26.7015 38.9375 25.7031C39.15 25.3089 39.4364 24.9964 39.7969 24.7656Z" fill="#5A44F5"/>
<path opacity="0.95" fill-rule="evenodd" clip-rule="evenodd" d="M35.4219 28.5157C35.9596 28.4846 36.4804 28.5627 36.9844 28.75C38.1057 30.1052 39.2515 31.4333 40.4219 32.7344C41.5924 31.4333 42.7382 30.1052 43.8594 28.75C45.9476 28.2865 46.7029 29.0938 46.1251 31.1719C44.7337 32.7575 43.3796 34.3722 42.0626 36.0157C41.9844 37.056 41.9585 38.0977 41.9844 39.1407C43.0274 39.1666 44.0691 39.1407 45.1094 39.0625C46.8282 37.6563 48.5469 36.25 50.2657 34.8438C52.1991 34.5894 52.9022 35.3968 52.3751 37.2657C51.0199 38.3869 49.6918 39.5327 48.3907 40.7032C49.6918 41.8736 51.0199 43.0194 52.3751 44.1407C52.9327 45.5775 52.464 46.463 50.9688 46.7969C50.629 46.679 50.2905 46.5488 49.9532 46.4063C48.3676 45.0149 46.7529 43.6608 45.1094 42.3438C44.0691 42.2657 43.0274 42.2397 41.9844 42.2657C41.9585 43.3086 41.9844 44.3504 42.0626 45.3907C43.4688 47.1094 44.8751 48.8282 46.2813 50.5469C46.5357 52.4804 45.7283 53.1835 43.8594 52.6563C42.7382 51.3011 41.5924 49.973 40.4219 48.6719C39.2515 49.973 38.1057 51.3011 36.9844 52.6563C34.8963 53.1199 34.141 52.3125 34.7188 50.2344C36.1102 48.6488 37.4643 47.0341 38.7813 45.3907C38.8594 44.3504 38.8854 43.3086 38.8594 42.2657C37.8165 42.2397 36.7747 42.2657 35.7344 42.3438C34.091 43.6608 32.4763 45.0149 30.8907 46.4063C30.0072 46.8968 29.1999 46.7666 28.4688 46.0157C28.1699 45.3952 28.1699 44.7702 28.4688 44.1407C29.824 43.0194 31.1521 41.8736 32.4532 40.7032C31.1521 39.5327 29.824 38.3869 28.4688 37.2657C28.0052 35.1775 28.8126 34.4222 30.8907 35C32.4763 36.3915 34.091 37.7455 35.7344 39.0625C36.7747 39.1407 37.8165 39.1666 38.8594 39.1407C38.8854 38.0977 38.8594 37.056 38.7813 36.0157C37.3751 34.2969 35.9688 32.5782 34.5626 30.8594C34.2637 29.8391 34.5501 29.0579 35.4219 28.5157Z" fill="#5A44F5"/>
<path opacity="0.903" fill-rule="evenodd" clip-rule="evenodd" d="M25.4219 39.1406C27.139 38.905 27.8944 39.634 27.6875 41.3281C27.1755 42.2045 26.4203 42.4909 25.4219 42.1875C24.5586 41.7314 24.2722 41.0282 24.5625 40.0781C24.775 39.6839 25.0614 39.3714 25.4219 39.1406Z" fill="#5A44F5"/>
<path opacity="0.903" fill-rule="evenodd" clip-rule="evenodd" d="M54.0156 39.1406C55.7328 38.905 56.4881 39.634 56.2812 41.3281C55.7692 42.2045 55.014 42.4909 54.0156 42.1875C53.1523 41.7314 52.8659 41.0282 53.1562 40.0781C53.3687 39.6839 53.6551 39.3714 54.0156 39.1406Z" fill="#5A44F5"/>
<path opacity="0.903" fill-rule="evenodd" clip-rule="evenodd" d="M39.7969 53.3593C41.5134 53.227 42.2166 54.0083 41.9063 55.7031C41.4502 56.5664 40.747 56.8528 39.7969 56.5625C38.9205 56.0504 38.6341 55.2953 38.9375 54.2968C39.15 53.9026 39.4364 53.5901 39.7969 53.3593Z" fill="#5A44F5"/>
<path opacity="0.902" fill-rule="evenodd" clip-rule="evenodd" d="M56.8281 65.8594C58.5371 65.6153 59.2922 66.3445 59.0938 68.0469C58.5969 68.9428 57.8417 69.2292 56.8281 68.9063C55.5867 67.8911 55.5867 66.8755 56.8281 65.8594Z" fill="#5A44F5"/>
<path opacity="0.978" fill-rule="evenodd" clip-rule="evenodd" d="M61.3593 65.8594C65.3701 65.8333 69.3804 65.8594 73.3906 65.9375C74.1367 66.5086 74.371 67.2638 74.0937 68.2031C73.9114 68.4896 73.677 68.7239 73.3906 68.9063C69.3801 69.0105 65.3698 69.0105 61.3593 68.9063C60.6132 68.3352 60.3789 67.58 60.6562 66.6406C60.8696 66.3497 61.104 66.0894 61.3593 65.8594Z" fill="#5A44F5"/>
</g>
<defs>
<clipPath id="clip0_232_173">
<rect width="80" height="80" fill="white" transform="translate(0.5)"/>
</clipPath>
</defs>
</svg>
