<svg width="81" height="80" viewBox="0 0 81 80" fill="none" xmlns="http://www.w3.org/2000/svg">
<g clip-path="url(#clip0_232_194)">
<path opacity="0.997" fill-rule="evenodd" clip-rule="evenodd" d="M10.4219 -0.078125C30.3698 -0.078125 50.3177 -0.078125 70.2656 -0.078125C70.5198 0.25465 70.8062 0.56715 71.125 0.859375C71.2292 26.9011 71.2292 52.9427 71.125 78.9844C70.8062 79.2766 70.5198 79.5891 70.2656 79.9219C50.3177 79.9219 30.3698 79.9219 10.4219 79.9219C10.1676 79.5891 9.88118 79.2766 9.56249 78.9844C9.40678 57.3052 9.45885 35.6384 9.71874 13.9844C10.1746 13.6885 10.6693 13.6104 11.2031 13.75C11.4896 13.8281 11.6719 14.0104 11.75 14.2969C11.8281 35.3906 11.8542 56.4844 11.8281 77.5781C30.8386 77.5781 49.8489 77.5781 68.8594 77.5781C68.8594 52.4739 68.8594 27.3698 68.8594 2.26562C49.8489 2.26562 30.8386 2.26562 11.8281 2.26562C11.8542 5.02653 11.8281 7.78695 11.75 10.5469C11.0208 11.3802 10.2917 11.3802 9.56249 10.5469C9.45832 7.3177 9.45832 4.08855 9.56249 0.859375C9.88118 0.56715 10.1676 0.25465 10.4219 -0.078125Z" fill="white"/>
<path opacity="0.974" fill-rule="evenodd" clip-rule="evenodd" d="M15.1094 4.60938C31.9323 4.58333 48.7553 4.60938 65.5781 4.6875C65.8645 4.97396 66.1511 5.26042 66.4375 5.54688C66.5417 25.5469 66.5417 45.5469 66.4375 65.5469C65.7083 66.3802 64.9792 66.3802 64.25 65.5469C64.1719 62.1098 64.1458 58.6723 64.1719 55.2344C51.0989 55.2605 38.0259 55.2344 24.9531 55.1562C24.215 54.7758 23.9806 54.1767 24.25 53.3594C24.4397 53.1173 24.6741 52.9352 24.9531 52.8125C38.0259 52.7344 51.0989 52.7083 64.1719 52.7344C64.1719 52.0052 64.1719 51.2761 64.1719 50.5469C48.2864 50.5469 32.4011 50.5469 16.5156 50.5469C16.5156 51.2761 16.5156 52.0052 16.5156 52.7344C17.9228 52.7084 19.3291 52.7344 20.7344 52.8125C21.4725 53.193 21.7069 53.792 21.4375 54.6094C21.2478 54.8514 21.0134 55.0336 20.7344 55.1562C19.3291 55.2344 17.9228 55.2603 16.5156 55.2344C16.5156 61.1198 16.5156 67.0052 16.5156 72.8906C17.5573 72.8906 18.5989 72.8906 19.6406 72.8906C19.6145 70.1297 19.6406 67.3694 19.7188 64.6094C19.9531 64.1667 20.2917 63.8281 20.7344 63.5938C22.8698 63.4895 25.0052 63.4895 27.1406 63.5938C27.5833 63.8281 27.9219 64.1667 28.1563 64.6094C28.2344 67.3694 28.2605 70.1297 28.2344 72.8906C29.0156 72.8906 29.7969 72.8906 30.5781 72.8906C30.552 70.1297 30.5781 67.3694 30.6563 64.6094C30.8906 64.1667 31.2292 63.8281 31.6719 63.5938C33.8073 63.4895 35.9427 63.4895 38.0781 63.5938C38.5208 63.8281 38.8594 64.1667 39.0938 64.6094C39.1719 67.3694 39.198 70.1297 39.1719 72.8906C39.9531 72.8906 40.7344 72.8906 41.5156 72.8906C41.4895 70.1297 41.5156 67.3694 41.5938 64.6094C41.8281 64.1667 42.1667 63.8281 42.6094 63.5938C44.7448 63.4895 46.8802 63.4895 49.0156 63.5938C49.4583 63.8281 49.7969 64.1667 50.0313 64.6094C50.1094 67.3694 50.1355 70.1297 50.1094 72.8906C50.8906 72.8906 51.6719 72.8906 52.4531 72.8906C52.427 70.1297 52.4531 67.3694 52.5313 64.6094C52.7656 64.1667 53.1042 63.8281 53.5469 63.5938C55.6823 63.4895 57.8177 63.4895 59.9531 63.5938C60.3958 63.8281 60.7344 64.1667 60.9688 64.6094C61.0469 67.3694 61.073 70.1297 61.0469 72.8906C62.0886 72.8906 63.1302 72.8906 64.1719 72.8906C64.1459 71.6916 64.1719 70.4936 64.25 69.2969C64.9792 68.4636 65.7083 68.4636 66.4375 69.2969C66.5417 70.9636 66.5417 72.6302 66.4375 74.2969C66.1511 74.5833 65.8645 74.8698 65.5781 75.1562C48.7552 75.2605 31.9323 75.2605 15.1094 75.1562C14.8229 74.8698 14.5365 74.5833 14.25 74.2969C14.1458 51.3802 14.1458 28.4636 14.25 5.54688C14.5687 5.25466 14.8551 4.94216 15.1094 4.60938ZM16.5156 6.95313C32.4011 6.95313 48.2864 6.95313 64.1719 6.95313C64.1719 12.8385 64.1719 18.7239 64.1719 24.6094C63.1302 24.6094 62.0886 24.6094 61.0469 24.6094C61.073 21.9005 61.0469 19.1922 60.9688 16.4844C60.7198 15.8706 60.277 15.48 59.6406 15.3125C57.7136 15.2083 55.7864 15.2083 53.8594 15.3125C53.223 15.48 52.7802 15.8706 52.5313 16.4844C52.4531 19.1922 52.427 21.9005 52.4531 24.6094C51.6719 24.6094 50.8906 24.6094 50.1094 24.6094C50.1355 21.9005 50.1094 19.1922 50.0313 16.4844C49.7823 15.8706 49.3395 15.48 48.7031 15.3125C46.7761 15.2083 44.8489 15.2083 42.9219 15.3125C42.2855 15.48 41.8427 15.8706 41.5938 16.4844C41.5156 19.1922 41.4895 21.9005 41.5156 24.6094C40.7344 24.6094 39.9531 24.6094 39.1719 24.6094C39.198 21.9005 39.1719 19.1922 39.0938 16.4844C38.8448 15.8706 38.402 15.48 37.7656 15.3125C35.8386 15.2083 33.9114 15.2083 31.9844 15.3125C31.348 15.48 30.9052 15.8706 30.6563 16.4844C30.5781 19.1922 30.552 21.9005 30.5781 24.6094C29.7969 24.6094 29.0156 24.6094 28.2344 24.6094C28.2605 21.9005 28.2344 19.1922 28.1563 16.4844C27.9073 15.8706 27.4645 15.48 26.8281 15.3125C24.9011 15.2083 22.9739 15.2083 21.0469 15.3125C20.4105 15.48 19.9677 15.8706 19.7188 16.4844C19.6406 19.1922 19.6145 21.9005 19.6406 24.6094C18.5989 24.6094 17.5573 24.6094 16.5156 24.6094C16.5156 18.7239 16.5156 12.8385 16.5156 6.95313ZM21.9844 17.7344C21.9844 18.2552 21.9844 18.7761 21.9844 19.2969C23.2864 19.2969 24.5886 19.2969 25.8906 19.2969C25.8906 18.7761 25.8906 18.2552 25.8906 17.7344C24.5886 17.7344 23.2864 17.7344 21.9844 17.7344ZM32.9219 17.7344C32.9219 18.2552 32.9219 18.7761 32.9219 19.2969C34.2239 19.2969 35.5261 19.2969 36.8281 19.2969C36.8281 18.7761 36.8281 18.2552 36.8281 17.7344C35.5261 17.7344 34.2239 17.7344 32.9219 17.7344ZM43.8594 17.7344C43.8594 18.2552 43.8594 18.7761 43.8594 19.2969C45.1614 19.2969 46.4636 19.2969 47.7656 19.2969C47.7656 18.7761 47.7656 18.2552 47.7656 17.7344C46.4636 17.7344 45.1614 17.7344 43.8594 17.7344ZM54.7969 17.7344C54.7969 18.2552 54.7969 18.7761 54.7969 19.2969C56.0989 19.2969 57.4011 19.2969 58.7031 19.2969C58.7031 18.7761 58.7031 18.2552 58.7031 17.7344C57.4011 17.7344 56.0989 17.7344 54.7969 17.7344ZM21.9844 21.7969C21.9844 22.7344 21.9844 23.6719 21.9844 24.6094C23.2864 24.6094 24.5886 24.6094 25.8906 24.6094C25.8906 23.6719 25.8906 22.7344 25.8906 21.7969C24.5886 21.7969 23.2864 21.7969 21.9844 21.7969ZM32.9219 21.7969C32.9219 22.7344 32.9219 23.6719 32.9219 24.6094C34.2239 24.6094 35.5261 24.6094 36.8281 24.6094C36.8281 23.6719 36.8281 22.7344 36.8281 21.7969C35.5261 21.7969 34.2239 21.7969 32.9219 21.7969ZM43.8594 21.7969C43.8594 22.7344 43.8594 23.6719 43.8594 24.6094C45.1614 24.6094 46.4636 24.6094 47.7656 24.6094C47.7656 23.6719 47.7656 22.7344 47.7656 21.7969C46.4636 21.7969 45.1614 21.7969 43.8594 21.7969ZM54.7969 21.7969C54.7969 22.7344 54.7969 23.6719 54.7969 24.6094C56.0989 24.6094 57.4011 24.6094 58.7031 24.6094C58.7031 23.6719 58.7031 22.7344 58.7031 21.7969C57.4011 21.7969 56.0989 21.7969 54.7969 21.7969ZM16.5156 27.1094C16.5156 27.8386 16.5156 28.5677 16.5156 29.2969C32.4011 29.2969 48.2864 29.2969 64.1719 29.2969C64.1719 28.5677 64.1719 27.8386 64.1719 27.1094C48.2864 27.1094 32.4011 27.1094 16.5156 27.1094ZM16.5156 31.7969C16.5156 37.2136 16.5156 42.6302 16.5156 48.0469C17.5573 48.0469 18.5989 48.0469 19.6406 48.0469C19.6145 45.338 19.6406 42.6297 19.7188 39.9219C19.9677 39.3081 20.4105 38.9175 21.0469 38.75C22.9739 38.6458 24.9011 38.6458 26.8281 38.75C27.4645 38.9175 27.9073 39.3081 28.1563 39.9219C28.2344 42.6297 28.2605 45.338 28.2344 48.0469C29.0156 48.0469 29.7969 48.0469 30.5781 48.0469C30.552 45.338 30.5781 42.6297 30.6563 39.9219C30.9052 39.3081 31.348 38.9175 31.9844 38.75C33.9114 38.6458 35.8386 38.6458 37.7656 38.75C38.402 38.9175 38.8448 39.3081 39.0938 39.9219C39.1719 42.6297 39.198 45.338 39.1719 48.0469C39.9531 48.0469 40.7344 48.0469 41.5156 48.0469C41.4895 45.338 41.5156 42.6297 41.5938 39.9219C41.8427 39.3081 42.2855 38.9175 42.9219 38.75C44.8489 38.6458 46.7761 38.6458 48.7031 38.75C49.3395 38.9175 49.7823 39.3081 50.0313 39.9219C50.1094 42.6297 50.1355 45.338 50.1094 48.0469C50.8906 48.0469 51.6719 48.0469 52.4531 48.0469C52.427 45.338 52.4531 42.6297 52.5313 39.9219C52.7802 39.3081 53.223 38.9175 53.8594 38.75C55.7864 38.6458 57.7136 38.6458 59.6406 38.75C60.277 38.9175 60.7198 39.3081 60.9688 39.9219C61.0469 42.6297 61.073 45.338 61.0469 48.0469C62.0886 48.0469 63.1302 48.0469 64.1719 48.0469C64.1719 42.6302 64.1719 37.2136 64.1719 31.7969C48.2864 31.7969 32.4011 31.7969 16.5156 31.7969ZM21.9844 41.1719C21.9844 41.6927 21.9844 42.2136 21.9844 42.7344C23.2864 42.7344 24.5886 42.7344 25.8906 42.7344C25.8906 42.2136 25.8906 41.6927 25.8906 41.1719C24.5886 41.1719 23.2864 41.1719 21.9844 41.1719ZM32.9219 41.1719C32.9219 41.6927 32.9219 42.2136 32.9219 42.7344C34.2239 42.7344 35.5261 42.7344 36.8281 42.7344C36.8281 42.2136 36.8281 41.6927 36.8281 41.1719C35.5261 41.1719 34.2239 41.1719 32.9219 41.1719ZM43.8594 41.1719C43.8594 41.6927 43.8594 42.2136 43.8594 42.7344C45.1614 42.7344 46.4636 42.7344 47.7656 42.7344C47.7656 42.2136 47.7656 41.6927 47.7656 41.1719C46.4636 41.1719 45.1614 41.1719 43.8594 41.1719ZM54.7969 41.1719C54.7969 41.6927 54.7969 42.2136 54.7969 42.7344C56.0989 42.7344 57.4011 42.7344 58.7031 42.7344C58.7031 42.2136 58.7031 41.6927 58.7031 41.1719C57.4011 41.1719 56.0989 41.1719 54.7969 41.1719ZM21.9844 45.2344C21.9844 46.1719 21.9844 47.1094 21.9844 48.0469C23.2864 48.0469 24.5886 48.0469 25.8906 48.0469C25.8906 47.1094 25.8906 46.1719 25.8906 45.2344C24.5886 45.2344 23.2864 45.2344 21.9844 45.2344ZM32.9219 45.2344C32.9219 46.1719 32.9219 47.1094 32.9219 48.0469C34.2239 48.0469 35.5261 48.0469 36.8281 48.0469C36.8281 47.1094 36.8281 46.1719 36.8281 45.2344C35.5261 45.2344 34.2239 45.2344 32.9219 45.2344ZM43.8594 45.2344C43.8594 46.1719 43.8594 47.1094 43.8594 48.0469C45.1614 48.0469 46.4636 48.0469 47.7656 48.0469C47.7656 47.1094 47.7656 46.1719 47.7656 45.2344C46.4636 45.2344 45.1614 45.2344 43.8594 45.2344ZM54.7969 45.2344C54.7969 46.1719 54.7969 47.1094 54.7969 48.0469C56.0989 48.0469 57.4011 48.0469 58.7031 48.0469C58.7031 47.1094 58.7031 46.1719 58.7031 45.2344C57.4011 45.2344 56.0989 45.2344 54.7969 45.2344ZM21.9844 65.8594C21.9844 66.4323 21.9844 67.0052 21.9844 67.5781C23.2864 67.5781 24.5886 67.5781 25.8906 67.5781C25.8906 67.0052 25.8906 66.4323 25.8906 65.8594C24.5886 65.8594 23.2864 65.8594 21.9844 65.8594ZM32.9219 65.8594C32.9219 66.4323 32.9219 67.0052 32.9219 67.5781C34.2239 67.5781 35.5261 67.5781 36.8281 67.5781C36.8281 67.0052 36.8281 66.4323 36.8281 65.8594C35.5261 65.8594 34.2239 65.8594 32.9219 65.8594ZM43.8594 65.8594C43.8594 66.4323 43.8594 67.0052 43.8594 67.5781C45.1614 67.5781 46.4636 67.5781 47.7656 67.5781C47.7656 67.0052 47.7656 66.4323 47.7656 65.8594C46.4636 65.8594 45.1614 65.8594 43.8594 65.8594ZM54.7969 65.8594C54.7969 66.4323 54.7969 67.0052 54.7969 67.5781C56.0989 67.5781 57.4011 67.5781 58.7031 67.5781C58.7031 67.0052 58.7031 66.4323 58.7031 65.8594C57.4011 65.8594 56.0989 65.8594 54.7969 65.8594ZM21.9844 69.9219C21.9844 70.9114 21.9844 71.9011 21.9844 72.8906C23.2864 72.8906 24.5886 72.8906 25.8906 72.8906C25.8906 71.9011 25.8906 70.9114 25.8906 69.9219C24.5886 69.9219 23.2864 69.9219 21.9844 69.9219ZM32.9219 69.9219C32.9219 70.9114 32.9219 71.9011 32.9219 72.8906C34.2239 72.8906 35.5261 72.8906 36.8281 72.8906C36.8281 71.9011 36.8281 70.9114 36.8281 69.9219C35.5261 69.9219 34.2239 69.9219 32.9219 69.9219ZM43.8594 69.9219C43.8594 70.9114 43.8594 71.9011 43.8594 72.8906C45.1614 72.8906 46.4636 72.8906 47.7656 72.8906C47.7656 71.9011 47.7656 70.9114 47.7656 69.9219C46.4636 69.9219 45.1614 69.9219 43.8594 69.9219ZM54.7969 69.9219C54.7969 70.9114 54.7969 71.9011 54.7969 72.8906C56.0989 72.8906 57.4011 72.8906 58.7031 72.8906C58.7031 71.9011 58.7031 70.9114 58.7031 69.9219C57.4011 69.9219 56.0989 69.9219 54.7969 69.9219Z" fill="white"/>
</g>
<defs>
<clipPath id="clip0_232_194">
<rect width="80" height="80" fill="white" transform="translate(0.5)"/>
</clipPath>
</defs>
</svg>
