<svg width="214" height="24" viewBox="0 0 214 24" fill="none" xmlns="http://www.w3.org/2000/svg">
<path d="M9.336 23.352C8.44 23.352 7.52267 23.2773 6.584 23.128C5.66667 23 4.78133 22.808 3.928 22.552C3.096 22.296 2.34933 21.976 1.688 21.592C1.21867 21.336 0.888 21.0053 0.696 20.6C0.504 20.1733 0.429333 19.7467 0.472 19.32C0.536 18.8933 0.696 18.52 0.952 18.2C1.22933 17.8587 1.57067 17.6453 1.976 17.56C2.40267 17.4533 2.872 17.528 3.384 17.784C4.25867 18.2747 5.208 18.6373 6.232 18.872C7.27733 19.1067 8.312 19.224 9.336 19.224C10.8933 19.224 12.0027 18.9893 12.664 18.52C13.3253 18.0293 13.656 17.4213 13.656 16.696C13.656 16.0773 13.4213 15.5867 12.952 15.224C12.4827 14.8613 11.6613 14.552 10.488 14.296L6.872 13.528C4.824 13.1013 3.29867 12.376 2.296 11.352C1.31467 10.3067 0.824 8.94133 0.824 7.256C0.824 6.18933 1.048 5.21867 1.496 4.344C1.944 3.46933 2.57333 2.712 3.384 2.072C4.19467 1.432 5.15467 0.941332 6.264 0.599998C7.39467 0.258666 8.632 0.0879993 9.976 0.0879993C11.1707 0.0879993 12.344 0.237333 13.496 0.535999C14.648 0.813333 15.6613 1.22933 16.536 1.784C16.9627 2.04 17.2507 2.37067 17.4 2.776C17.5707 3.16 17.624 3.55467 17.56 3.96C17.5173 4.344 17.3573 4.68533 17.08 4.984C16.824 5.28267 16.4933 5.47467 16.088 5.56C15.6827 5.64533 15.192 5.54933 14.616 5.272C13.912 4.90933 13.1653 4.64267 12.376 4.472C11.5867 4.30133 10.776 4.216 9.944 4.216C9.048 4.216 8.28 4.33333 7.64 4.568C7.02133 4.80267 6.54133 5.13333 6.2 5.56C5.88 5.98667 5.72 6.47733 5.72 7.032C5.72 7.65067 5.944 8.152 6.392 8.536C6.84 8.92 7.61867 9.22933 8.728 9.464L12.344 10.232C14.4347 10.68 15.992 11.4053 17.016 12.408C18.04 13.3893 18.552 14.6907 18.552 16.312C18.552 17.3787 18.3387 18.3493 17.912 19.224C17.4853 20.0773 16.8667 20.8133 16.056 21.432C15.2453 22.0507 14.2747 22.5307 13.144 22.872C12.0133 23.192 10.744 23.352 9.336 23.352ZM24.268 23.288C23.4573 23.288 22.8387 23.064 22.412 22.616C21.9853 22.168 21.772 21.5387 21.772 20.728V2.712C21.772 1.90133 21.9853 1.272 22.412 0.823999C22.8387 0.375999 23.4573 0.151999 24.268 0.151999C25.0573 0.151999 25.6653 0.375999 26.092 0.823999C26.5187 1.272 26.732 1.90133 26.732 2.712V9.496H37.228V2.712C37.228 1.90133 37.4413 1.272 37.868 0.823999C38.2947 0.375999 38.9027 0.151999 39.692 0.151999C40.5027 0.151999 41.1213 0.375999 41.548 0.823999C41.9747 1.272 42.188 1.90133 42.188 2.712V20.728C42.188 21.5387 41.9747 22.168 41.548 22.616C41.1213 23.064 40.5027 23.288 39.692 23.288C38.9027 23.288 38.2947 23.064 37.868 22.616C37.4413 22.168 37.228 21.5387 37.228 20.728V13.624H26.732V20.728C26.732 21.5387 26.5187 22.168 26.092 22.616C25.6867 23.064 25.0787 23.288 24.268 23.288ZM47.3808 23.288C46.7834 23.288 46.2928 23.1493 45.9088 22.872C45.5461 22.5947 45.3114 22.2213 45.2048 21.752C45.1194 21.2827 45.2154 20.76 45.4928 20.184L53.6848 2.232C54.0261 1.50667 54.4314 0.983999 54.9008 0.664C55.3701 0.322666 55.9141 0.151999 56.5328 0.151999C57.1514 0.151999 57.6954 0.322666 58.1648 0.664C58.6341 0.983999 59.0288 1.50667 59.3488 2.232L67.6048 20.184C67.8821 20.76 67.9781 21.2933 67.8928 21.784C67.8288 22.2533 67.6154 22.6267 67.2528 22.904C66.8901 23.16 66.4208 23.288 65.8448 23.288C65.1194 23.288 64.5541 23.1173 64.1488 22.776C63.7648 22.4347 63.4234 21.9013 63.1248 21.176L61.2048 16.728L63.1888 18.104H49.8448L51.8288 16.728L49.9408 21.176C49.6208 21.9227 49.2794 22.4667 48.9168 22.808C48.5754 23.128 48.0634 23.288 47.3808 23.288ZM56.4688 5.72L52.3728 15.48L51.5088 14.232H61.5248L60.6608 15.48L56.5328 5.72H56.4688ZM73.3305 23.288C72.5198 23.288 71.9012 23.064 71.4745 22.616C71.0478 22.168 70.8345 21.5387 70.8345 20.728V2.712C70.8345 1.90133 71.0478 1.272 71.4745 0.823999C71.9012 0.375999 72.5198 0.151999 73.3305 0.151999C74.1198 0.151999 74.7278 0.375999 75.1545 0.823999C75.5812 1.272 75.7945 1.90133 75.7945 2.712V9.496H86.2905V2.712C86.2905 1.90133 86.5038 1.272 86.9305 0.823999C87.3572 0.375999 87.9652 0.151999 88.7545 0.151999C89.5652 0.151999 90.1838 0.375999 90.6105 0.823999C91.0372 1.272 91.2505 1.90133 91.2505 2.712V20.728C91.2505 21.5387 91.0372 22.168 90.6105 22.616C90.1838 23.064 89.5652 23.288 88.7545 23.288C87.9652 23.288 87.3572 23.064 86.9305 22.616C86.5038 22.168 86.2905 21.5387 86.2905 20.728V13.624H75.7945V20.728C75.7945 21.5387 75.5812 22.168 75.1545 22.616C74.7492 23.064 74.1412 23.288 73.3305 23.288ZM98.3953 23C97.5633 23 96.9233 22.776 96.4753 22.328C96.0273 21.88 95.8033 21.24 95.8033 20.408V3.032C95.8033 2.2 96.0273 1.56 96.4753 1.112C96.9233 0.663999 97.5633 0.439999 98.3953 0.439999H104.635C108.497 0.439999 111.473 1.42133 113.563 3.384C115.675 5.32533 116.731 8.09867 116.731 11.704C116.731 13.5173 116.454 15.128 115.899 16.536C115.366 17.9227 114.587 19.096 113.563 20.056C112.539 21.016 111.281 21.752 109.787 22.264C108.294 22.7547 106.577 23 104.635 23H98.3953ZM100.763 18.936H104.347C105.563 18.936 106.619 18.7867 107.515 18.488C108.411 18.1893 109.158 17.7413 109.755 17.144C110.353 16.5467 110.801 15.8 111.099 14.904C111.398 13.9867 111.547 12.92 111.547 11.704C111.547 9.272 110.939 7.46933 109.723 6.296C108.529 5.10133 106.737 4.504 104.347 4.504H100.763V18.936ZM120.693 23.288C120.096 23.288 119.605 23.1493 119.221 22.872C118.859 22.5947 118.624 22.2213 118.517 21.752C118.432 21.2827 118.528 20.76 118.805 20.184L126.997 2.232C127.339 1.50667 127.744 0.983999 128.213 0.664C128.683 0.322666 129.227 0.151999 129.845 0.151999C130.464 0.151999 131.008 0.322666 131.477 0.664C131.947 0.983999 132.341 1.50667 132.661 2.232L140.917 20.184C141.195 20.76 141.291 21.2933 141.205 21.784C141.141 22.2533 140.928 22.6267 140.565 22.904C140.203 23.16 139.733 23.288 139.157 23.288C138.432 23.288 137.867 23.1173 137.461 22.776C137.077 22.4347 136.736 21.9013 136.437 21.176L134.517 16.728L136.501 18.104H123.157L125.141 16.728L123.253 21.176C122.933 21.9227 122.592 22.4667 122.229 22.808C121.888 23.128 121.376 23.288 120.693 23.288ZM129.781 5.72L125.685 15.48L124.821 14.232H134.837L133.973 15.48L129.845 5.72H129.781ZM154.784 23.352C152.245 23.352 150.09 22.872 148.32 21.912C146.57 20.952 145.237 19.608 144.32 17.88C143.402 16.152 142.944 14.1253 142.944 11.8C142.944 10.008 143.21 8.39733 143.744 6.968C144.298 5.51733 145.088 4.29067 146.112 3.288C147.157 2.264 148.416 1.47467 149.888 0.919998C151.381 0.365332 153.066 0.0879993 154.944 0.0879993C156.096 0.0879993 157.248 0.215999 158.4 0.471998C159.552 0.727999 160.661 1.15467 161.728 1.752C162.176 2.008 162.474 2.33867 162.624 2.744C162.794 3.128 162.837 3.544 162.752 3.992C162.688 4.41867 162.517 4.80267 162.24 5.144C161.984 5.464 161.642 5.67733 161.216 5.784C160.81 5.86933 160.341 5.784 159.808 5.528C159.104 5.144 158.357 4.86667 157.568 4.696C156.778 4.504 155.914 4.408 154.976 4.408C153.461 4.408 152.192 4.696 151.168 5.272C150.144 5.82667 149.376 6.65867 148.864 7.768C148.373 8.856 148.128 10.2 148.128 11.8C148.128 14.2107 148.704 16.0347 149.856 17.272C151.029 18.5093 152.757 19.128 155.04 19.128C155.808 19.128 156.597 19.0533 157.408 18.904C158.218 18.7547 159.018 18.5413 159.808 18.264L158.88 20.28V14.136H156C155.36 14.136 154.869 13.976 154.528 13.656C154.186 13.336 154.016 12.8987 154.016 12.344C154.016 11.768 154.186 11.3307 154.528 11.032C154.869 10.712 155.36 10.552 156 10.552H161.024C161.664 10.552 162.144 10.7227 162.464 11.064C162.805 11.4053 162.976 11.896 162.976 12.536V19.96C162.976 20.5147 162.869 20.984 162.656 21.368C162.442 21.752 162.08 22.0293 161.568 22.2C160.608 22.5413 159.53 22.8187 158.336 23.032C157.141 23.2453 155.957 23.352 154.784 23.352ZM169.894 23.288C169.083 23.288 168.454 23.064 168.006 22.616C167.579 22.168 167.366 21.5173 167.366 20.664V3.032C167.366 2.2 167.59 1.56 168.038 1.112C168.486 0.663999 169.126 0.439999 169.958 0.439999H180.902C181.542 0.439999 182.022 0.610666 182.342 0.952C182.683 1.272 182.854 1.74133 182.854 2.36C182.854 3 182.683 3.49067 182.342 3.832C182.022 4.152 181.542 4.312 180.902 4.312H172.326V9.816H180.198C180.838 9.816 181.328 9.98667 181.67 10.328C182.011 10.648 182.182 11.1173 182.182 11.736C182.182 12.3547 182.011 12.8347 181.67 13.176C181.328 13.5173 180.838 13.688 180.198 13.688H172.326V20.664C172.326 22.4133 171.515 23.288 169.894 23.288ZM188.112 23.288C187.301 23.288 186.682 23.064 186.256 22.616C185.829 22.168 185.616 21.5387 185.616 20.728V2.712C185.616 1.90133 185.829 1.272 186.256 0.823999C186.682 0.375999 187.301 0.151999 188.112 0.151999C188.901 0.151999 189.509 0.375999 189.936 0.823999C190.362 1.272 190.576 1.90133 190.576 2.712V20.728C190.576 21.5387 190.362 22.168 189.936 22.616C189.53 23.064 188.922 23.288 188.112 23.288ZM196.524 23.288C195.884 23.288 195.35 23.1173 194.924 22.776C194.518 22.4133 194.284 21.976 194.22 21.464C194.156 20.9307 194.326 20.3867 194.732 19.832L201.804 10.456V12.664L195.02 3.64C194.614 3.064 194.433 2.52 194.476 2.008C194.54 1.47467 194.774 1.03733 195.18 0.695999C195.606 0.333332 196.129 0.151999 196.748 0.151999C197.281 0.151999 197.74 0.279999 198.124 0.535999C198.529 0.791999 198.934 1.19733 199.34 1.752L204.62 9.048H203.02L208.268 1.752C208.673 1.176 209.078 0.770665 209.484 0.535999C209.889 0.279999 210.358 0.151999 210.892 0.151999C211.532 0.151999 212.054 0.322666 212.46 0.664C212.886 1.00533 213.121 1.44267 213.164 1.976C213.228 2.488 213.046 3.04267 212.62 3.64L205.804 12.664V10.456L212.844 19.832C213.27 20.3867 213.452 20.9307 213.388 21.464C213.345 21.976 213.11 22.4133 212.684 22.776C212.278 23.1173 211.745 23.288 211.084 23.288C210.572 23.288 210.113 23.16 209.708 22.904C209.324 22.648 208.918 22.232 208.492 21.656L202.988 14.072H204.62L199.116 21.656C198.71 22.232 198.305 22.648 197.9 22.904C197.494 23.16 197.036 23.288 196.524 23.288Z" fill="#5A44F5"/>
</svg>
