<svg width="16" height="16" viewBox="0 0 16 16" fill="none" xmlns="http://www.w3.org/2000/svg">
  <path d="M15.805 0.195435C15.68 0.0704544 15.5105 0.000244141 15.3337 0.000244141C15.1569 0.000244141 14.9874 0.0704544 14.8623 0.195435L8.00035 7.05744L1.13835 0.195435C1.01333 0.0704544 0.843789 0.000244141 0.667013 0.000244141C0.490236 0.000244141 0.320698 0.0704544 0.195679 0.195435C0.0706986 0.320454 0.000488281 0.489992 0.000488281 0.666768C0.000488281 0.843544 0.0706986 1.01308 0.195679 1.1381L7.05768 8.0001L0.195679 14.8621C0.0706986 14.9871 0.000488281 15.1567 0.000488281 15.3334C0.000488281 15.5102 0.0706986 15.6797 0.195679 15.8048C0.320698 15.9297 0.490236 16 0.667013 16C0.843789 16 1.01333 15.9297 1.13835 15.8048L8.00035 8.94277L14.8623 15.8048C14.9874 15.9297 15.1569 16 15.3337 16C15.5105 16 15.68 15.9297 15.805 15.8048C15.93 15.6797 16.0002 15.5102 16.0002 15.3334C16.0002 15.1567 15.93 14.9871 15.805 14.8621L8.94301 8.0001L15.805 1.1381C15.93 1.01308 16.0002 0.843544 16.0002 0.666768C16.0002 0.489992 15.93 0.320454 15.805 0.195435Z" fill="#1A1A1A"/>
</svg>
