<svg width="100" height="100" viewBox="0 0 100 100" fill="none" xmlns="http://www.w3.org/2000/svg">
<circle cx="50" cy="50" r="50" fill="#5A44F5"/>
<g clip-path="url(#clip0_62_1472)">
<path d="M70.6378 34.862L42.9998 62.498C42.8139 62.6846 42.5931 62.8326 42.3499 62.9336C42.1068 63.0346 41.8461 63.0866 41.5828 63.0866C41.3194 63.0866 41.0587 63.0346 40.8156 62.9336C40.5724 62.8326 40.3516 62.6846 40.1658 62.498L29.4778 51.8C29.2919 51.6135 29.0711 51.4654 28.8279 51.3644C28.5848 51.2634 28.3241 51.2114 28.0608 51.2114C27.7974 51.2114 27.5367 51.2634 27.2936 51.3644C27.0504 51.4654 26.8296 51.6135 26.6438 51.8C26.4572 51.9858 26.3092 52.2067 26.2082 52.4498C26.1072 52.693 26.0552 52.9537 26.0552 53.217C26.0552 53.4803 26.1072 53.741 26.2082 53.9842C26.3092 54.2274 26.4572 54.4482 26.6438 54.634L37.3358 65.324C38.4636 66.4498 39.9921 67.0821 41.5858 67.0821C43.1794 67.0821 44.7079 66.4498 45.8358 65.324L73.4718 37.694C73.658 37.5082 73.8058 37.2875 73.9066 37.0446C74.0074 36.8016 74.0593 36.5411 74.0593 36.278C74.0593 36.0149 74.0074 35.7545 73.9066 35.5115C73.8058 35.2685 73.658 35.0478 73.4718 34.862C73.2859 34.6755 73.0651 34.5274 72.8219 34.4264C72.5788 34.3254 72.3181 34.2734 72.0548 34.2734C71.7915 34.2734 71.5307 34.3254 71.2876 34.4264C71.0444 34.5274 70.8236 34.6755 70.6378 34.862Z" fill="white"/>
</g>
<defs>
<clipPath id="clip0_62_1472">
<rect width="48" height="48" fill="white" transform="translate(26 26)"/>
</clipPath>
</defs>
</svg>
