<svg width="18" height="18" viewBox="0 0 18 18" fill="none" xmlns="http://www.w3.org/2000/svg">
<g clip-path="url(#clip0_3_9876)">
<path opacity="0.96" fill-rule="evenodd" clip-rule="evenodd" d="M17.9824 3.39258C17.9824 7.11914 17.9824 10.8457 17.9824 14.5723C17.8013 15.1576 17.4146 15.5385 16.8223 15.7148C11.5957 15.7383 6.36915 15.7383 1.14258 15.7148C0.55023 15.5385 0.163512 15.1576 -0.0175781 14.5723C-0.0175781 10.8457 -0.0175781 7.11914 -0.0175781 3.39258C0.163512 2.80722 0.55023 2.42636 1.14258 2.25C6.36915 2.22656 11.5957 2.22656 16.8223 2.25C17.4146 2.42636 17.8013 2.80722 17.9824 3.39258ZM1.38867 3.04102C6.4453 3.00002 11.5078 2.99416 16.5762 3.02344C14.1819 5.26553 11.7561 7.46863 9.29883 9.63281C8.99093 9.75516 8.70968 9.70829 8.45508 9.49219C6.09363 7.34752 3.73816 5.19711 1.38867 3.04102ZM0.755859 3.60352C0.792844 3.59828 0.828 3.60411 0.861328 3.62109C2.80111 5.391 4.7347 7.16639 6.66211 8.94727C4.68489 10.7251 2.72784 12.5298 0.791016 14.3613C0.755859 10.7755 0.744142 7.18952 0.755859 3.60352ZM17.1035 3.60352C17.1387 3.60352 17.1738 3.60352 17.209 3.60352C17.2207 7.18952 17.209 10.7755 17.1738 14.3613C15.237 12.5298 13.28 10.7251 11.3027 8.94727C13.237 7.16523 15.1706 5.384 17.1035 3.60352ZM7.25977 9.50977C7.56823 9.75347 7.87293 10.0054 8.17383 10.2656C8.71288 10.5703 9.25196 10.5703 9.79102 10.2656C10.0827 10.0326 10.3639 9.78655 10.6348 9.52734C10.6843 9.51627 10.7311 9.52798 10.7754 9.5625C12.7524 11.3167 14.6977 13.1096 16.6113 14.9414C11.5254 14.9649 6.43947 14.9649 1.35352 14.9414C3.28696 13.0838 5.25572 11.2732 7.25977 9.50977Z" fill="#5A44F5" stroke="#5A44F5" stroke-width="0.4"/>
</g>
<defs>
<clipPath id="clip0_3_9876">
<rect width="18" height="18" fill="white"/>
</clipPath>
</defs>
</svg>
